<svg xmlns="http://www.w3.org/2000/svg" xmlns:xlink="http://www.w3.org/1999/xlink" width="1080" zoomAndPan="magnify" viewBox="0 0 810 809.999993" height="1080" preserveAspectRatio="xMidYMid meet" version="1.0"><defs><g/><clipPath id="22cc78f984"><path d="M 81 605.535156 L 729 605.535156 L 729 787.785156 L 81 787.785156 Z M 81 605.535156 " clip-rule="nonzero"/></clipPath><clipPath id="27eedd48fe"><path d="M 141.75 605.535156 L 668.25 605.535156 L 729 787.785156 L 81 787.785156 Z M 141.75 605.535156 " clip-rule="nonzero"/></clipPath><clipPath id="95e7432b27"><path d="M 0 0.535156 L 648 0.535156 L 648 182.785156 L 0 182.785156 Z M 0 0.535156 " clip-rule="nonzero"/></clipPath><clipPath id="ffa901ef48"><path d="M 60.75 0.535156 L 587.25 0.535156 L 648 182.785156 L 0 182.785156 Z M 60.75 0.535156 " clip-rule="nonzero"/></clipPath><clipPath id="6dfb63b43a"><rect x="0" width="648" y="0" height="183"/></clipPath><clipPath id="4e0d66b6e1"><path d="M 141.730469 423.285156 L 668.546875 423.285156 L 668.546875 605.535156 L 141.730469 605.535156 Z M 141.730469 423.285156 " clip-rule="nonzero"/></clipPath><clipPath id="d89abdd445"><path d="M 202.480469 423.285156 L 607.519531 423.285156 L 668.269531 605.535156 L 141.730469 605.535156 Z M 202.480469 423.285156 " clip-rule="nonzero"/></clipPath><clipPath id="05c67f2552"><path d="M 0.730469 0.285156 L 527.398438 0.285156 L 527.398438 182.535156 L 0.730469 182.535156 Z M 0.730469 0.285156 " clip-rule="nonzero"/></clipPath><clipPath id="a27ac84392"><path d="M 61.480469 0.285156 L 466.519531 0.285156 L 527.269531 182.535156 L 0.730469 182.535156 Z M 61.480469 0.285156 " clip-rule="nonzero"/></clipPath><clipPath id="6c7ae288fb"><rect x="0" width="528" y="0" height="183"/></clipPath><clipPath id="7d908fd205"><path d="M 202.460938 241.785156 L 607.539062 241.785156 L 607.539062 424.035156 L 202.460938 424.035156 Z M 202.460938 241.785156 " clip-rule="nonzero"/></clipPath><clipPath id="d11a75e4fd"><path d="M 263.210938 241.785156 L 546.789062 241.785156 L 607.539062 424.035156 L 202.460938 424.035156 Z M 263.210938 241.785156 " clip-rule="nonzero"/></clipPath><clipPath id="ad7a84518c"><path d="M 0.460938 0.785156 L 405.539062 0.785156 L 405.539062 183.035156 L 0.460938 183.035156 Z M 0.460938 0.785156 " clip-rule="nonzero"/></clipPath><clipPath id="dd77dffb8f"><path d="M 61.210938 0.785156 L 344.789062 0.785156 L 405.539062 183.035156 L 0.460938 183.035156 Z M 61.210938 0.785156 " clip-rule="nonzero"/></clipPath><clipPath id="2eb2dec846"><rect x="0" width="406" y="0" height="184"/></clipPath><clipPath id="af4dc8d351"><path d="M 263.28125 60.285156 L 547 60.285156 L 547 242.535156 L 263.28125 242.535156 Z M 263.28125 60.285156 " clip-rule="nonzero"/></clipPath><clipPath id="67aabdacbd"><path d="M 324.03125 60.285156 L 485.96875 60.285156 L 546.71875 242.535156 L 263.28125 242.535156 Z M 324.03125 60.285156 " clip-rule="nonzero"/></clipPath><clipPath id="379303b64d"><path d="M 0.28125 0.285156 L 283.71875 0.285156 L 283.71875 182.535156 L 0.28125 182.535156 Z M 0.28125 0.285156 " clip-rule="nonzero"/></clipPath><clipPath id="93fcfb8d8a"><path d="M 61.03125 0.285156 L 222.96875 0.285156 L 283.71875 182.535156 L 0.28125 182.535156 Z M 61.03125 0.285156 " clip-rule="nonzero"/></clipPath><clipPath id="749e5a4728"><rect x="0" width="284" y="0" height="183"/></clipPath></defs><g clip-path="url(#22cc78f984)"><g clip-path="url(#27eedd48fe)"><g transform="matrix(1, 0, 0, 1, 81, 605)"><g clip-path="url(#6dfb63b43a)"><g clip-path="url(#95e7432b27)"><g clip-path="url(#ffa901ef48)"><path fill="#075e41" d="M 0 0.535156 L 647.839844 0.535156 L 647.839844 182.785156 L 0 182.785156 Z M 0 0.535156 " fill-opacity="1" fill-rule="nonzero"/></g></g></g></g></g></g><g clip-path="url(#4e0d66b6e1)"><g clip-path="url(#d89abdd445)"><g transform="matrix(1, 0, 0, 1, 141, 423)"><g clip-path="url(#6c7ae288fb)"><g clip-path="url(#05c67f2552)"><g clip-path="url(#a27ac84392)"><path fill="#0f8a3c" d="M 0.730469 0.285156 L 527.546875 0.285156 L 527.546875 182.535156 L 0.730469 182.535156 Z M 0.730469 0.285156 " fill-opacity="1" fill-rule="nonzero"/></g></g></g></g></g></g><g clip-path="url(#7d908fd205)"><g clip-path="url(#d11a75e4fd)"><g transform="matrix(1, 0, 0, 1, 202, 241)"><g clip-path="url(#2eb2dec846)"><g clip-path="url(#ad7a84518c)"><g clip-path="url(#dd77dffb8f)"><path fill="#3fa56a" d="M 0.460938 0.785156 L 405.539062 0.785156 L 405.539062 183.035156 L 0.460938 183.035156 Z M 0.460938 0.785156 " fill-opacity="1" fill-rule="nonzero"/></g></g></g></g></g></g><g clip-path="url(#af4dc8d351)"><g clip-path="url(#67aabdacbd)"><g transform="matrix(1, 0, 0, 1, 263, 60)"><g clip-path="url(#749e5a4728)"><g clip-path="url(#379303b64d)"><g clip-path="url(#93fcfb8d8a)"><path fill="#5fbf8f" d="M 0.28125 0.285156 L 283.625 0.285156 L 283.625 182.535156 L 0.28125 182.535156 Z M 0.28125 0.285156 " fill-opacity="1" fill-rule="nonzero"/></g></g></g></g></g></g><g fill="#ffffff" fill-opacity="1"><g transform="translate(197.765619, 715.036856)"><g><path d="M 17.703125 -34.265625 C 20.148438 -34.265625 22.242188 -33.816406 23.984375 -32.921875 C 25.734375 -32.023438 27.050781 -30.765625 27.9375 -29.140625 C 28.832031 -27.523438 29.28125 -25.648438 29.28125 -23.515625 C 29.28125 -21.367188 28.832031 -19.488281 27.9375 -17.875 C 27.050781 -16.269531 25.734375 -15.019531 23.984375 -14.125 C 22.242188 -13.226562 20.148438 -12.78125 17.703125 -12.78125 L 11.234375 -12.78125 L 11.234375 0 L 4.453125 0 L 4.453125 -34.265625 Z M 16.8125 -18.140625 C 20.570312 -18.140625 22.453125 -19.929688 22.453125 -23.515625 C 22.453125 -27.109375 20.570312 -28.90625 16.8125 -28.90625 L 11.234375 -28.90625 L 11.234375 -18.140625 Z M 16.8125 -18.140625 "/></g></g></g><g fill="#ffffff" fill-opacity="1"><g transform="translate(227.718743, 715.036856)"><g><path d="M 15.03125 0.5 C 12.5 0.5 10.273438 -0.0195312 8.359375 -1.0625 C 6.441406 -2.101562 4.957031 -3.628906 3.90625 -5.640625 C 2.851562 -7.648438 2.328125 -10.078125 2.328125 -12.921875 C 2.328125 -15.765625 2.851562 -18.191406 3.90625 -20.203125 C 4.957031 -22.222656 6.441406 -23.75 8.359375 -24.78125 C 10.273438 -25.820312 12.5 -26.34375 15.03125 -26.34375 C 17.5625 -26.34375 19.78125 -25.820312 21.6875 -24.78125 C 23.601562 -23.75 25.09375 -22.222656 26.15625 -20.203125 C 27.21875 -18.191406 27.75 -15.765625 27.75 -12.921875 C 27.75 -10.078125 27.21875 -7.648438 26.15625 -5.640625 C 25.09375 -3.628906 23.601562 -2.101562 21.6875 -1.0625 C 19.78125 -0.0195312 17.5625 0.5 15.03125 0.5 Z M 15.03125 -5.015625 C 19.039062 -5.015625 21.046875 -7.648438 21.046875 -12.921875 C 21.046875 -15.648438 20.53125 -17.648438 19.5 -18.921875 C 18.46875 -20.203125 16.976562 -20.84375 15.03125 -20.84375 C 11.007812 -20.84375 9 -18.203125 9 -12.921875 C 9 -7.648438 11.007812 -5.015625 15.03125 -5.015625 Z M 15.03125 -5.015625 "/></g></g><g transform="translate(257.765616, 715.036856)"><g><path d="M 12.09375 0.5 C 10.332031 0.5 8.71875 0.289062 7.25 -0.125 C 5.78125 -0.539062 4.523438 -1.113281 3.484375 -1.84375 C 2.441406 -2.570312 1.671875 -3.40625 1.171875 -4.34375 L 4.78125 -8.234375 L 5.28125 -8.234375 C 6.132812 -7.078125 7.144531 -6.207031 8.3125 -5.625 C 9.488281 -5.050781 10.765625 -4.765625 12.140625 -4.765625 C 13.410156 -4.765625 14.363281 -4.988281 15 -5.4375 C 15.644531 -5.894531 15.96875 -6.546875 15.96875 -7.390625 C 15.96875 -8.046875 15.734375 -8.59375 15.265625 -9.03125 C 14.804688 -9.476562 14.0625 -9.828125 13.03125 -10.078125 L 9.609375 -10.90625 C 7.046875 -11.507812 5.175781 -12.441406 4 -13.703125 C 2.820312 -14.960938 2.234375 -16.5625 2.234375 -18.5 C 2.234375 -20.101562 2.640625 -21.5 3.453125 -22.6875 C 4.273438 -23.875 5.429688 -24.78125 6.921875 -25.40625 C 8.421875 -26.03125 10.160156 -26.34375 12.140625 -26.34375 C 14.472656 -26.34375 16.40625 -26.003906 17.9375 -25.328125 C 19.46875 -24.660156 20.660156 -23.765625 21.515625 -22.640625 L 18.046875 -18.890625 L 17.578125 -18.890625 C 16.859375 -19.703125 16.050781 -20.296875 15.15625 -20.671875 C 14.257812 -21.046875 13.253906 -21.234375 12.140625 -21.234375 C 9.578125 -21.234375 8.296875 -20.4375 8.296875 -18.84375 C 8.296875 -18.175781 8.535156 -17.628906 9.015625 -17.203125 C 9.492188 -16.785156 10.332031 -16.441406 11.53125 -16.171875 L 14.71875 -15.46875 C 17.34375 -14.90625 19.257812 -14.003906 20.46875 -12.765625 C 21.6875 -11.523438 22.296875 -9.859375 22.296875 -7.765625 C 22.296875 -6.117188 21.890625 -4.671875 21.078125 -3.421875 C 20.265625 -2.171875 19.09375 -1.203125 17.5625 -0.515625 C 16.03125 0.160156 14.207031 0.5 12.09375 0.5 Z M 12.09375 0.5 "/></g></g><g transform="translate(281.601552, 715.036856)"><g><path d="M 6.96875 -28.953125 C 5.789062 -28.953125 4.832031 -29.304688 4.09375 -30.015625 C 3.363281 -30.722656 3 -31.640625 3 -32.765625 C 3 -33.878906 3.363281 -34.789062 4.09375 -35.5 C 4.832031 -36.207031 5.789062 -36.5625 6.96875 -36.5625 C 7.75 -36.5625 8.441406 -36.394531 9.046875 -36.0625 C 9.660156 -35.738281 10.132812 -35.289062 10.46875 -34.71875 C 10.800781 -34.15625 10.96875 -33.503906 10.96875 -32.765625 C 10.96875 -32.035156 10.800781 -31.378906 10.46875 -30.796875 C 10.132812 -30.222656 9.660156 -29.769531 9.046875 -29.4375 C 8.441406 -29.113281 7.75 -28.953125 6.96875 -28.953125 Z M 3.734375 0 L 3.734375 -25.859375 L 10.21875 -25.859375 L 10.21875 0 Z M 3.734375 0 "/></g></g><g transform="translate(295.523426, 715.036856)"><g><path d="M 17.84375 -6.171875 L 19.53125 -1.359375 C 18.820312 -0.785156 17.9375 -0.332031 16.875 0 C 15.8125 0.332031 14.609375 0.5 13.265625 0.5 C 10.472656 0.5 8.347656 -0.257812 6.890625 -1.78125 C 5.441406 -3.3125 4.71875 -5.53125 4.71875 -8.4375 L 4.71875 -20.71875 L 0.78125 -20.71875 L 0.78125 -25.875 L 4.71875 -25.875 L 4.71875 -30.921875 L 11.203125 -31.96875 L 11.203125 -25.875 L 18.546875 -25.875 L 18.546875 -20.71875 L 11.203125 -20.71875 L 11.203125 -8.90625 C 11.203125 -7.625 11.46875 -6.691406 12 -6.109375 C 12.53125 -5.523438 13.304688 -5.234375 14.328125 -5.234375 C 15.484375 -5.234375 16.488281 -5.546875 17.34375 -6.171875 Z M 17.84375 -6.171875 "/></g></g><g transform="translate(315.609363, 715.036856)"><g><path d="M 6.96875 -28.953125 C 5.789062 -28.953125 4.832031 -29.304688 4.09375 -30.015625 C 3.363281 -30.722656 3 -31.640625 3 -32.765625 C 3 -33.878906 3.363281 -34.789062 4.09375 -35.5 C 4.832031 -36.207031 5.789062 -36.5625 6.96875 -36.5625 C 7.75 -36.5625 8.441406 -36.394531 9.046875 -36.0625 C 9.660156 -35.738281 10.132812 -35.289062 10.46875 -34.71875 C 10.800781 -34.15625 10.96875 -33.503906 10.96875 -32.765625 C 10.96875 -32.035156 10.800781 -31.378906 10.46875 -30.796875 C 10.132812 -30.222656 9.660156 -29.769531 9.046875 -29.4375 C 8.441406 -29.113281 7.75 -28.953125 6.96875 -28.953125 Z M 3.734375 0 L 3.734375 -25.859375 L 10.21875 -25.859375 L 10.21875 0 Z M 3.734375 0 "/></g></g><g transform="translate(329.531237, 715.036856)"><g><path d="M 17.796875 0 L 10.0625 0 L 0.5 -25.859375 L 7.296875 -25.859375 L 13.71875 -7.4375 L 14.25 -7.4375 L 20.703125 -25.859375 L 27.328125 -25.859375 Z M 17.796875 0 "/></g></g></g><g fill="#ffffff" fill-opacity="1"><g transform="translate(356.835924, 715.036856)"><g><path d="M 25.546875 -11.46875 L 8.9375 -11.46875 C 9.125 -9.21875 9.765625 -7.578125 10.859375 -6.546875 C 11.953125 -5.523438 13.441406 -5.015625 15.328125 -5.015625 C 16.816406 -5.015625 18.019531 -5.289062 18.9375 -5.84375 C 19.863281 -6.40625 20.609375 -7.25 21.171875 -8.375 L 21.65625 -8.375 L 25.96875 -5.609375 C 25.125 -3.796875 23.847656 -2.320312 22.140625 -1.1875 C 20.441406 -0.0625 18.171875 0.5 15.328125 0.5 C 12.660156 0.5 10.351562 -0.0078125 8.40625 -1.03125 C 6.457031 -2.050781 4.957031 -3.5625 3.90625 -5.5625 C 2.851562 -7.570312 2.328125 -10.023438 2.328125 -12.921875 C 2.328125 -15.859375 2.878906 -18.332031 3.984375 -20.34375 C 5.097656 -22.363281 6.597656 -23.867188 8.484375 -24.859375 C 10.378906 -25.847656 12.503906 -26.34375 14.859375 -26.34375 C 18.515625 -26.34375 21.316406 -25.375 23.265625 -23.4375 C 25.210938 -21.5 26.1875 -18.65625 26.1875 -14.90625 C 26.1875 -13.550781 26.140625 -12.5 26.046875 -11.75 Z M 19.96875 -15.65625 C 19.90625 -17.625 19.445312 -19.054688 18.59375 -19.953125 C 17.75 -20.859375 16.503906 -21.3125 14.859375 -21.3125 C 11.578125 -21.3125 9.648438 -19.425781 9.078125 -15.65625 Z M 19.96875 -15.65625 "/></g></g><g transform="translate(384.937485, 715.036856)"><g/></g><g transform="translate(396.257797, 715.036856)"><g><path d="M 18.734375 0.5 C 15.578125 0.5 12.796875 -0.15625 10.390625 -1.46875 C 7.984375 -2.789062 6.097656 -4.765625 4.734375 -7.390625 C 3.378906 -10.023438 2.703125 -13.273438 2.703125 -17.140625 C 2.703125 -20.992188 3.378906 -24.238281 4.734375 -26.875 C 6.097656 -29.507812 7.984375 -31.484375 10.390625 -32.796875 C 12.796875 -34.109375 15.578125 -34.765625 18.734375 -34.765625 C 22.023438 -34.765625 24.820312 -34.117188 27.125 -32.828125 C 29.4375 -31.535156 31.082031 -29.570312 32.0625 -26.9375 L 27.125 -23.90625 L 26.53125 -23.9375 C 25.800781 -25.71875 24.804688 -26.992188 23.546875 -27.765625 C 22.285156 -28.535156 20.679688 -28.921875 18.734375 -28.921875 C 15.890625 -28.921875 13.671875 -27.976562 12.078125 -26.09375 C 10.484375 -24.21875 9.6875 -21.234375 9.6875 -17.140625 C 9.6875 -13.054688 10.484375 -10.070312 12.078125 -8.1875 C 13.671875 -6.3125 15.890625 -5.375 18.734375 -5.375 C 23.179688 -5.375 25.90625 -7.535156 26.90625 -11.859375 L 27.5 -11.859375 L 32.484375 -9.265625 C 31.546875 -6.015625 29.941406 -3.570312 27.671875 -1.9375 C 25.410156 -0.3125 22.429688 0.5 18.734375 0.5 Z M 18.734375 0.5 "/></g></g><g transform="translate(429.86717, 715.036856)"><g><path d="M 10.078125 0.5 C 8.421875 0.5 6.984375 0.191406 5.765625 -0.421875 C 4.546875 -1.035156 3.609375 -1.929688 2.953125 -3.109375 C 2.296875 -4.285156 1.96875 -5.703125 1.96875 -7.359375 C 1.96875 -8.890625 2.296875 -10.175781 2.953125 -11.21875 C 3.609375 -12.257812 4.625 -13.109375 6 -13.765625 C 7.375 -14.429688 9.171875 -14.945312 11.390625 -15.3125 C 12.941406 -15.5625 14.117188 -15.832031 14.921875 -16.125 C 15.722656 -16.425781 16.265625 -16.765625 16.546875 -17.140625 C 16.828125 -17.515625 16.96875 -17.988281 16.96875 -18.5625 C 16.96875 -19.394531 16.675781 -20.03125 16.09375 -20.46875 C 15.519531 -20.90625 14.5625 -21.125 13.21875 -21.125 C 11.78125 -21.125 10.410156 -20.800781 9.109375 -20.15625 C 7.816406 -19.519531 6.695312 -18.675781 5.75 -17.625 L 5.28125 -17.625 L 2.5625 -21.734375 C 3.875 -23.179688 5.472656 -24.3125 7.359375 -25.125 C 9.253906 -25.9375 11.316406 -26.34375 13.546875 -26.34375 C 16.972656 -26.34375 19.453125 -25.613281 20.984375 -24.15625 C 22.515625 -22.707031 23.28125 -20.648438 23.28125 -17.984375 L 23.28125 -6.75 C 23.28125 -5.59375 23.785156 -5.015625 24.796875 -5.015625 C 25.191406 -5.015625 25.578125 -5.085938 25.953125 -5.234375 L 26.28125 -5.140625 L 26.75 -0.609375 C 26.382812 -0.378906 25.878906 -0.1875 25.234375 -0.03125 C 24.597656 0.113281 23.898438 0.1875 23.140625 0.1875 C 21.585938 0.1875 20.378906 -0.109375 19.515625 -0.703125 C 18.648438 -1.296875 18.03125 -2.226562 17.65625 -3.5 L 17.15625 -3.546875 C 15.894531 -0.847656 13.535156 0.5 10.078125 0.5 Z M 12.140625 -4.359375 C 13.640625 -4.359375 14.835938 -4.863281 15.734375 -5.875 C 16.640625 -6.882812 17.09375 -8.285156 17.09375 -10.078125 L 17.09375 -12.703125 L 16.640625 -12.796875 C 16.253906 -12.484375 15.742188 -12.222656 15.109375 -12.015625 C 14.472656 -11.804688 13.5625 -11.597656 12.375 -11.390625 C 10.96875 -11.160156 9.957031 -10.757812 9.34375 -10.1875 C 8.726562 -9.613281 8.421875 -8.804688 8.421875 -7.765625 C 8.421875 -6.648438 8.75 -5.800781 9.40625 -5.21875 C 10.0625 -4.644531 10.972656 -4.359375 12.140625 -4.359375 Z M 12.140625 -4.359375 "/></g></g><g transform="translate(457.124981, 715.036856)"><g><path d="M 12.09375 0.5 C 10.332031 0.5 8.71875 0.289062 7.25 -0.125 C 5.78125 -0.539062 4.523438 -1.113281 3.484375 -1.84375 C 2.441406 -2.570312 1.671875 -3.40625 1.171875 -4.34375 L 4.78125 -8.234375 L 5.28125 -8.234375 C 6.132812 -7.078125 7.144531 -6.207031 8.3125 -5.625 C 9.488281 -5.050781 10.765625 -4.765625 12.140625 -4.765625 C 13.410156 -4.765625 14.363281 -4.988281 15 -5.4375 C 15.644531 -5.894531 15.96875 -6.546875 15.96875 -7.390625 C 15.96875 -8.046875 15.734375 -8.59375 15.265625 -9.03125 C 14.804688 -9.476562 14.0625 -9.828125 13.03125 -10.078125 L 9.609375 -10.90625 C 7.046875 -11.507812 5.175781 -12.441406 4 -13.703125 C 2.820312 -14.960938 2.234375 -16.5625 2.234375 -18.5 C 2.234375 -20.101562 2.640625 -21.5 3.453125 -22.6875 C 4.273438 -23.875 5.429688 -24.78125 6.921875 -25.40625 C 8.421875 -26.03125 10.160156 -26.34375 12.140625 -26.34375 C 14.472656 -26.34375 16.40625 -26.003906 17.9375 -25.328125 C 19.46875 -24.660156 20.660156 -23.765625 21.515625 -22.640625 L 18.046875 -18.890625 L 17.578125 -18.890625 C 16.859375 -19.703125 16.050781 -20.296875 15.15625 -20.671875 C 14.257812 -21.046875 13.253906 -21.234375 12.140625 -21.234375 C 9.578125 -21.234375 8.296875 -20.4375 8.296875 -18.84375 C 8.296875 -18.175781 8.535156 -17.628906 9.015625 -17.203125 C 9.492188 -16.785156 10.332031 -16.441406 11.53125 -16.171875 L 14.71875 -15.46875 C 17.34375 -14.90625 19.257812 -14.003906 20.46875 -12.765625 C 21.6875 -11.523438 22.296875 -9.859375 22.296875 -7.765625 C 22.296875 -6.117188 21.890625 -4.671875 21.078125 -3.421875 C 20.265625 -2.171875 19.09375 -1.203125 17.5625 -0.515625 C 16.03125 0.160156 14.207031 0.5 12.09375 0.5 Z M 12.09375 0.5 "/></g></g><g transform="translate(480.960917, 715.036856)"><g><path d="M 3.734375 0 L 3.734375 -36.234375 L 10.21875 -36.234375 L 10.21875 -22.484375 L 10.71875 -22.390625 C 11.570312 -23.648438 12.625 -24.625 13.875 -25.3125 C 15.125 -26 16.632812 -26.34375 18.40625 -26.34375 C 24.101562 -26.34375 26.953125 -23.109375 26.953125 -16.640625 L 26.953125 0 L 20.46875 0 L 20.46875 -15.828125 C 20.46875 -17.585938 20.113281 -18.863281 19.40625 -19.65625 C 18.707031 -20.457031 17.613281 -20.859375 16.125 -20.859375 C 14.3125 -20.859375 12.875 -20.253906 11.8125 -19.046875 C 10.75 -17.835938 10.21875 -15.953125 10.21875 -13.390625 L 10.21875 0 Z M 3.734375 0 "/></g></g></g><g fill="#ffffff" fill-opacity="1"><g transform="translate(511.054666, 715.036856)"><g><path d="M 4.53125 0 L 4.53125 -20.71875 L 0.875 -20.71875 L 0.875 -25.875 L 4.53125 -25.875 C 4.257812 -26.96875 4.125 -27.992188 4.125 -28.953125 C 4.125 -30.585938 4.5 -31.988281 5.25 -33.15625 C 6 -34.320312 7.078125 -35.207031 8.484375 -35.8125 C 9.890625 -36.425781 11.5625 -36.734375 13.5 -36.734375 C 16.363281 -36.734375 18.5 -36.238281 19.90625 -35.25 L 18.375 -30.46875 L 17.890625 -30.375 C 16.921875 -31.0625 15.675781 -31.40625 14.15625 -31.40625 C 12.988281 -31.40625 12.109375 -31.117188 11.515625 -30.546875 C 10.929688 -29.984375 10.640625 -29.207031 10.640625 -28.21875 C 10.640625 -27.800781 10.664062 -27.414062 10.71875 -27.0625 C 10.78125 -26.707031 10.878906 -26.3125 11.015625 -25.875 L 18.40625 -25.875 L 18.40625 -20.71875 L 11.015625 -20.71875 L 11.015625 0 Z M 4.53125 0 "/></g></g><g transform="translate(529.710915, 715.036856)"><g><path d="M 10.734375 0.5 C 8.410156 0.5 6.632812 -0.128906 5.40625 -1.390625 C 4.175781 -2.648438 3.5625 -4.5625 3.5625 -7.125 L 3.5625 -36.234375 L 10.0625 -36.234375 L 10.0625 -7.390625 C 10.0625 -5.804688 10.71875 -5.015625 12.03125 -5.015625 C 12.40625 -5.015625 12.800781 -5.078125 13.21875 -5.203125 L 13.546875 -5.109375 L 14.140625 -0.125 C 13.773438 0.0703125 13.296875 0.222656 12.703125 0.328125 C 12.109375 0.441406 11.453125 0.5 10.734375 0.5 Z M 10.734375 0.5 "/></g></g><g transform="translate(544.570289, 715.036856)"><g><path d="M 15.03125 0.5 C 12.5 0.5 10.273438 -0.0195312 8.359375 -1.0625 C 6.441406 -2.101562 4.957031 -3.628906 3.90625 -5.640625 C 2.851562 -7.648438 2.328125 -10.078125 2.328125 -12.921875 C 2.328125 -15.765625 2.851562 -18.191406 3.90625 -20.203125 C 4.957031 -22.222656 6.441406 -23.75 8.359375 -24.78125 C 10.273438 -25.820312 12.5 -26.34375 15.03125 -26.34375 C 17.5625 -26.34375 19.78125 -25.820312 21.6875 -24.78125 C 23.601562 -23.75 25.09375 -22.222656 26.15625 -20.203125 C 27.21875 -18.191406 27.75 -15.765625 27.75 -12.921875 C 27.75 -10.078125 27.21875 -7.648438 26.15625 -5.640625 C 25.09375 -3.628906 23.601562 -2.101562 21.6875 -1.0625 C 19.78125 -0.0195312 17.5625 0.5 15.03125 0.5 Z M 15.03125 -5.015625 C 19.039062 -5.015625 21.046875 -7.648438 21.046875 -12.921875 C 21.046875 -15.648438 20.53125 -17.648438 19.5 -18.921875 C 18.46875 -20.203125 16.976562 -20.84375 15.03125 -20.84375 C 11.007812 -20.84375 9 -18.203125 9 -12.921875 C 9 -7.648438 11.007812 -5.015625 15.03125 -5.015625 Z M 15.03125 -5.015625 "/></g></g></g><g fill="#ffffff" fill-opacity="1"><g transform="translate(574.429663, 715.036856)"><g><path d="M 13.875 0 L 7.078125 0 L 0.9375 -25.859375 L 6.96875 -25.859375 L 10.765625 -8.375 L 11.25 -8.375 L 16.171875 -25.859375 L 21.796875 -25.859375 L 26.890625 -8.375 L 27.375 -8.375 L 31.03125 -25.859375 L 36.890625 -25.859375 L 30.828125 0 L 24 0 L 19.109375 -17.609375 L 18.609375 -17.609375 Z M 13.875 0 "/></g></g></g><g fill="#ffffff" fill-opacity="1"><g transform="translate(285.089813, 501.661867)"><g><path d="M 3.71875 0 L 3.71875 -28.5625 L 15.171875 -28.5625 C 18.128906 -28.5625 20.359375 -27.878906 21.859375 -26.515625 C 23.367188 -25.148438 24.125 -23.269531 24.125 -20.875 C 24.125 -19.144531 23.679688 -17.726562 22.796875 -16.625 C 21.921875 -15.519531 20.613281 -14.671875 18.875 -14.078125 L 18.875 -13.671875 C 19.769531 -13.285156 20.492188 -12.707031 21.046875 -11.9375 C 21.597656 -11.164062 22.125 -10.023438 22.625 -8.515625 L 25.46875 0 L 19.671875 0 L 16.875 -8.53125 C 16.59375 -9.394531 16.269531 -10.0625 15.90625 -10.53125 C 15.550781 -11.007812 15.097656 -11.351562 14.546875 -11.5625 C 13.992188 -11.78125 13.273438 -11.890625 12.390625 -11.890625 L 9.359375 -11.890625 L 9.359375 0 Z M 14.5 -16.375 C 17.226562 -16.375 18.59375 -17.648438 18.59375 -20.203125 C 18.59375 -22.785156 17.226562 -24.078125 14.5 -24.078125 L 9.359375 -24.078125 L 9.359375 -16.375 Z M 14.5 -16.375 "/></g></g></g><g fill="#ffffff" fill-opacity="1"><g transform="translate(311.22006, 501.661867)"><g><path d="M 21.296875 -9.546875 L 7.4375 -9.546875 C 7.59375 -7.671875 8.125 -6.304688 9.03125 -5.453125 C 9.945312 -4.609375 11.195312 -4.1875 12.78125 -4.1875 C 14.007812 -4.1875 15.007812 -4.414062 15.78125 -4.875 C 16.550781 -5.332031 17.171875 -6.03125 17.640625 -6.96875 L 18.046875 -6.96875 L 21.640625 -4.671875 C 20.941406 -3.160156 19.878906 -1.9375 18.453125 -1 C 17.035156 -0.0625 15.144531 0.40625 12.78125 0.40625 C 10.550781 0.40625 8.625 -0.015625 7 -0.859375 C 5.382812 -1.703125 4.132812 -2.960938 3.25 -4.640625 C 2.375 -6.316406 1.9375 -8.359375 1.9375 -10.765625 C 1.9375 -13.210938 2.394531 -15.273438 3.3125 -16.953125 C 4.238281 -18.628906 5.488281 -19.878906 7.0625 -20.703125 C 8.644531 -21.535156 10.421875 -21.953125 12.390625 -21.953125 C 15.429688 -21.953125 17.757812 -21.144531 19.375 -19.53125 C 21 -17.914062 21.8125 -15.546875 21.8125 -12.421875 C 21.8125 -11.285156 21.773438 -10.40625 21.703125 -9.78125 Z M 16.640625 -13.046875 C 16.585938 -14.691406 16.207031 -15.882812 15.5 -16.625 C 14.789062 -17.375 13.753906 -17.75 12.390625 -17.75 C 9.648438 -17.75 8.039062 -16.179688 7.5625 -13.046875 Z M 16.640625 -13.046875 "/></g></g></g><g fill="#ffffff" fill-opacity="1"><g transform="translate(334.635747, 501.661867)"><g><path d="M 10.640625 0.40625 C 8.941406 0.40625 7.4375 -0.00390625 6.125 -0.828125 C 4.8125 -1.660156 3.785156 -2.910156 3.046875 -4.578125 C 2.304688 -6.253906 1.9375 -8.316406 1.9375 -10.765625 C 1.9375 -13.222656 2.316406 -15.285156 3.078125 -16.953125 C 3.835938 -18.628906 4.890625 -19.878906 6.234375 -20.703125 C 7.585938 -21.535156 9.148438 -21.953125 10.921875 -21.953125 C 12.265625 -21.953125 13.425781 -21.71875 14.40625 -21.25 C 15.382812 -20.789062 16.210938 -20.078125 16.890625 -19.109375 L 17.3125 -19.203125 L 17.3125 -30.203125 L 22.71875 -30.203125 L 22.71875 0 L 17.3125 0 L 17.3125 -2.796875 L 16.890625 -2.875 C 16.296875 -1.851562 15.476562 -1.050781 14.4375 -0.46875 C 13.394531 0.113281 12.128906 0.40625 10.640625 0.40625 Z M 12.40625 -4.1875 C 13.925781 -4.1875 15.128906 -4.726562 16.015625 -5.8125 C 16.898438 -6.894531 17.34375 -8.546875 17.34375 -10.765625 C 17.34375 -12.972656 16.898438 -14.625 16.015625 -15.71875 C 15.128906 -16.8125 13.925781 -17.359375 12.40625 -17.359375 C 10.8125 -17.359375 9.59375 -16.828125 8.75 -15.765625 C 7.914062 -14.710938 7.5 -13.046875 7.5 -10.765625 C 7.5 -8.492188 7.914062 -6.828125 8.75 -5.765625 C 9.59375 -4.710938 10.8125 -4.1875 12.40625 -4.1875 Z M 12.40625 -4.1875 "/></g></g></g><g fill="#ffffff" fill-opacity="1"><g transform="translate(360.453536, 501.661867)"><g><path d="M 9.859375 0.40625 C 7.441406 0.40625 5.65625 -0.253906 4.5 -1.578125 C 3.351562 -2.898438 2.78125 -4.796875 2.78125 -7.265625 L 2.78125 -21.546875 L 8.1875 -21.546875 L 8.1875 -7.953125 C 8.1875 -6.640625 8.46875 -5.675781 9.03125 -5.0625 C 9.601562 -4.457031 10.476562 -4.15625 11.65625 -4.15625 C 13.15625 -4.15625 14.320312 -4.644531 15.15625 -5.625 C 15.988281 -6.613281 16.40625 -8.164062 16.40625 -10.28125 L 16.40625 -21.546875 L 21.8125 -21.546875 L 21.8125 0 L 16.625 0 L 16.625 -3.171875 L 16.21875 -3.265625 C 15.519531 -2.023438 14.671875 -1.101562 13.671875 -0.5 C 12.679688 0.101562 11.410156 0.40625 9.859375 0.40625 Z M 9.859375 0.40625 "/></g></g></g><g fill="#ffffff" fill-opacity="1"><g transform="translate(385.372977, 501.661867)"><g><path d="M 12.5625 0.40625 C 10.476562 0.40625 8.632812 -0.0234375 7.03125 -0.890625 C 5.425781 -1.753906 4.175781 -3.023438 3.28125 -4.703125 C 2.382812 -6.390625 1.9375 -8.410156 1.9375 -10.765625 C 1.9375 -13.128906 2.382812 -15.148438 3.28125 -16.828125 C 4.175781 -18.515625 5.414062 -19.789062 7 -20.65625 C 8.59375 -21.519531 10.414062 -21.953125 12.46875 -21.953125 C 17.007812 -21.953125 19.914062 -20.304688 21.1875 -17.015625 L 17.484375 -14.359375 L 17.078125 -14.359375 C 16.628906 -15.367188 16.050781 -16.117188 15.34375 -16.609375 C 14.632812 -17.109375 13.675781 -17.359375 12.46875 -17.359375 C 10.90625 -17.359375 9.6875 -16.816406 8.8125 -15.734375 C 7.9375 -14.660156 7.5 -13.003906 7.5 -10.765625 C 7.5 -8.546875 7.941406 -6.894531 8.828125 -5.8125 C 9.710938 -4.726562 10.957031 -4.1875 12.5625 -4.1875 C 13.726562 -4.1875 14.71875 -4.5 15.53125 -5.125 C 16.351562 -5.757812 16.9375 -6.671875 17.28125 -7.859375 L 17.703125 -7.890625 L 21.546875 -5.78125 C 20.992188 -3.957031 19.976562 -2.46875 18.5 -1.3125 C 17.03125 -0.164062 15.050781 0.40625 12.5625 0.40625 Z M 12.5625 0.40625 "/></g></g></g><g fill="#ffffff" fill-opacity="1"><g transform="translate(407.577844, 501.661867)"><g><path d="M 21.296875 -9.546875 L 7.4375 -9.546875 C 7.59375 -7.671875 8.125 -6.304688 9.03125 -5.453125 C 9.945312 -4.609375 11.195312 -4.1875 12.78125 -4.1875 C 14.007812 -4.1875 15.007812 -4.414062 15.78125 -4.875 C 16.550781 -5.332031 17.171875 -6.03125 17.640625 -6.96875 L 18.046875 -6.96875 L 21.640625 -4.671875 C 20.941406 -3.160156 19.878906 -1.9375 18.453125 -1 C 17.035156 -0.0625 15.144531 0.40625 12.78125 0.40625 C 10.550781 0.40625 8.625 -0.015625 7 -0.859375 C 5.382812 -1.703125 4.132812 -2.960938 3.25 -4.640625 C 2.375 -6.316406 1.9375 -8.359375 1.9375 -10.765625 C 1.9375 -13.210938 2.394531 -15.273438 3.3125 -16.953125 C 4.238281 -18.628906 5.488281 -19.878906 7.0625 -20.703125 C 8.644531 -21.535156 10.421875 -21.953125 12.390625 -21.953125 C 15.429688 -21.953125 17.757812 -21.144531 19.375 -19.53125 C 21 -17.914062 21.8125 -15.546875 21.8125 -12.421875 C 21.8125 -11.285156 21.773438 -10.40625 21.703125 -9.78125 Z M 16.640625 -13.046875 C 16.585938 -14.691406 16.207031 -15.882812 15.5 -16.625 C 14.789062 -17.375 13.753906 -17.75 12.390625 -17.75 C 9.648438 -17.75 8.039062 -16.179688 7.5625 -13.046875 Z M 16.640625 -13.046875 "/></g></g></g><g fill="#ffffff" fill-opacity="1"><g transform="translate(430.99353, 501.661867)"><g/></g></g><g fill="#ffffff" fill-opacity="1"><g transform="translate(440.426208, 501.661867)"><g><path d="M 3.109375 0 L 3.109375 -30.203125 L 8.515625 -30.203125 L 8.515625 -18.734375 L 8.921875 -18.65625 C 9.640625 -19.707031 10.519531 -20.519531 11.5625 -21.09375 C 12.601562 -21.664062 13.859375 -21.953125 15.328125 -21.953125 C 20.085938 -21.953125 22.46875 -19.257812 22.46875 -13.875 L 22.46875 0 L 17.046875 0 L 17.046875 -13.1875 C 17.046875 -14.65625 16.753906 -15.722656 16.171875 -16.390625 C 15.585938 -17.054688 14.675781 -17.390625 13.4375 -17.390625 C 11.925781 -17.390625 10.726562 -16.882812 9.84375 -15.875 C 8.957031 -14.863281 8.515625 -13.289062 8.515625 -11.15625 L 8.515625 0 Z M 3.109375 0 "/></g></g></g><g fill="#ffffff" fill-opacity="1"><g transform="translate(465.658118, 501.661867)"><g><path d="M 5.796875 -24.125 C 4.828125 -24.125 4.035156 -24.421875 3.421875 -25.015625 C 2.804688 -25.609375 2.5 -26.375 2.5 -27.3125 C 2.5 -28.226562 2.804688 -28.984375 3.421875 -29.578125 C 4.035156 -30.171875 4.828125 -30.46875 5.796875 -30.46875 C 6.453125 -30.46875 7.03125 -30.332031 7.53125 -30.0625 C 8.039062 -29.789062 8.4375 -29.414062 8.71875 -28.9375 C 9 -28.457031 9.140625 -27.914062 9.140625 -27.3125 C 9.140625 -26.695312 9 -26.144531 8.71875 -25.65625 C 8.4375 -25.175781 8.039062 -24.800781 7.53125 -24.53125 C 7.03125 -24.257812 6.453125 -24.125 5.796875 -24.125 Z M 3.109375 0 L 3.109375 -21.546875 L 8.515625 -21.546875 L 8.515625 0 Z M 3.109375 0 "/></g></g></g><g fill="#ffffff" fill-opacity="1"><g transform="translate(477.258535, 501.661867)"><g><path d="M 11.171875 9.140625 C 7.617188 9.140625 4.992188 8.617188 3.296875 7.578125 C 1.609375 6.535156 0.765625 5.082031 0.765625 3.21875 C 0.765625 2.09375 1.125 1.164062 1.84375 0.4375 C 2.570312 -0.28125 3.613281 -0.765625 4.96875 -1.015625 L 4.96875 -1.421875 C 4.238281 -1.867188 3.710938 -2.363281 3.390625 -2.90625 C 3.066406 -3.445312 2.90625 -4.070312 2.90625 -4.78125 C 2.90625 -6.519531 4.035156 -7.6875 6.296875 -8.28125 L 6.296875 -8.6875 C 5.128906 -9.351562 4.253906 -10.175781 3.671875 -11.15625 C 3.085938 -12.144531 2.796875 -13.335938 2.796875 -14.734375 C 2.796875 -16.160156 3.125 -17.414062 3.78125 -18.5 C 4.4375 -19.59375 5.398438 -20.441406 6.671875 -21.046875 C 7.941406 -21.648438 9.460938 -21.953125 11.234375 -21.953125 C 13.023438 -21.953125 14.457031 -21.640625 15.53125 -21.015625 C 16.195312 -21.984375 16.582031 -23.097656 16.6875 -24.359375 L 17.09375 -24.609375 L 20.984375 -23.65625 C 20.859375 -22.625 20.554688 -21.757812 20.078125 -21.0625 C 19.597656 -20.363281 18.847656 -19.742188 17.828125 -19.203125 L 17.828125 -18.765625 C 19.046875 -17.703125 19.65625 -16.210938 19.65625 -14.296875 C 19.65625 -12.972656 19.320312 -11.78125 18.65625 -10.71875 C 17.988281 -9.664062 17.019531 -8.832031 15.75 -8.21875 C 14.476562 -7.613281 12.972656 -7.3125 11.234375 -7.3125 L 10.40625 -7.328125 C 9.882812 -7.347656 9.519531 -7.359375 9.3125 -7.359375 C 8.820312 -7.359375 8.4375 -7.222656 8.15625 -6.953125 C 7.875 -6.691406 7.734375 -6.351562 7.734375 -5.9375 C 7.734375 -5.476562 7.914062 -5.125 8.28125 -4.875 C 8.644531 -4.625 9.179688 -4.484375 9.890625 -4.453125 L 14.703125 -4.28125 C 19.472656 -4.132812 21.859375 -2.082031 21.859375 1.875 C 21.859375 3.269531 21.503906 4.507812 20.796875 5.59375 C 20.085938 6.6875 18.9375 7.550781 17.34375 8.1875 C 15.757812 8.820312 13.703125 9.140625 11.171875 9.140625 Z M 11.234375 -11.09375 C 12.273438 -11.09375 13.085938 -11.398438 13.671875 -12.015625 C 14.253906 -12.628906 14.546875 -13.5 14.546875 -14.625 C 14.546875 -15.757812 14.253906 -16.628906 13.671875 -17.234375 C 13.085938 -17.835938 12.273438 -18.140625 11.234375 -18.140625 C 10.179688 -18.140625 9.367188 -17.835938 8.796875 -17.234375 C 8.222656 -16.628906 7.9375 -15.757812 7.9375 -14.625 C 7.9375 -13.476562 8.222656 -12.601562 8.796875 -12 C 9.367188 -11.394531 10.179688 -11.09375 11.234375 -11.09375 Z M 11.171875 5.21875 C 13.023438 5.21875 14.367188 4.957031 15.203125 4.4375 C 16.046875 3.914062 16.46875 3.238281 16.46875 2.40625 C 16.46875 1.726562 16.25 1.226562 15.8125 0.90625 C 15.382812 0.59375 14.703125 0.421875 13.765625 0.390625 L 9.515625 0.203125 C 9.367188 0.203125 9.234375 0.191406 9.109375 0.171875 C 8.984375 0.160156 8.863281 0.15625 8.75 0.15625 C 7.84375 0.15625 7.148438 0.347656 6.671875 0.734375 C 6.191406 1.128906 5.953125 1.671875 5.953125 2.359375 C 5.953125 3.273438 6.390625 3.976562 7.265625 4.46875 C 8.140625 4.96875 9.441406 5.21875 11.171875 5.21875 Z M 11.171875 5.21875 "/></g></g></g><g fill="#ffffff" fill-opacity="1"><g transform="translate(499.658696, 501.661867)"><g><path d="M 3.109375 0 L 3.109375 -30.203125 L 8.515625 -30.203125 L 8.515625 -18.734375 L 8.921875 -18.65625 C 9.640625 -19.707031 10.519531 -20.519531 11.5625 -21.09375 C 12.601562 -21.664062 13.859375 -21.953125 15.328125 -21.953125 C 20.085938 -21.953125 22.46875 -19.257812 22.46875 -13.875 L 22.46875 0 L 17.046875 0 L 17.046875 -13.1875 C 17.046875 -14.65625 16.753906 -15.722656 16.171875 -16.390625 C 15.585938 -17.054688 14.675781 -17.390625 13.4375 -17.390625 C 11.925781 -17.390625 10.726562 -16.882812 9.84375 -15.875 C 8.957031 -14.863281 8.515625 -13.289062 8.515625 -11.15625 L 8.515625 0 Z M 3.109375 0 "/></g></g></g><g fill="#ffffff" fill-opacity="1"><g transform="translate(277.929657, 557.161864)"><g><path d="M 5.796875 -24.125 C 4.828125 -24.125 4.035156 -24.421875 3.421875 -25.015625 C 2.804688 -25.609375 2.5 -26.375 2.5 -27.3125 C 2.5 -28.226562 2.804688 -28.984375 3.421875 -29.578125 C 4.035156 -30.171875 4.828125 -30.46875 5.796875 -30.46875 C 6.453125 -30.46875 7.03125 -30.332031 7.53125 -30.0625 C 8.039062 -29.789062 8.4375 -29.414062 8.71875 -28.9375 C 9 -28.457031 9.140625 -27.914062 9.140625 -27.3125 C 9.140625 -26.695312 9 -26.144531 8.71875 -25.65625 C 8.4375 -25.175781 8.039062 -24.800781 7.53125 -24.53125 C 7.03125 -24.257812 6.453125 -24.125 5.796875 -24.125 Z M 3.109375 0 L 3.109375 -21.546875 L 8.515625 -21.546875 L 8.515625 0 Z M 3.109375 0 "/></g></g></g><g fill="#ffffff" fill-opacity="1"><g transform="translate(289.530086, 557.161864)"><g><path d="M 3.109375 0 L 3.109375 -21.546875 L 8.296875 -21.546875 L 8.296875 -18.375 L 8.71875 -18.28125 C 10.050781 -20.726562 12.222656 -21.953125 15.234375 -21.953125 C 17.722656 -21.953125 19.550781 -21.273438 20.71875 -19.921875 C 21.882812 -18.566406 22.46875 -16.59375 22.46875 -14 L 22.46875 0 L 17.046875 0 L 17.046875 -13.34375 C 17.046875 -14.769531 16.757812 -15.800781 16.1875 -16.4375 C 15.613281 -17.070312 14.695312 -17.390625 13.4375 -17.390625 C 11.882812 -17.390625 10.675781 -16.882812 9.8125 -15.875 C 8.945312 -14.875 8.515625 -13.300781 8.515625 -11.15625 L 8.515625 0 Z M 3.109375 0 "/></g></g></g><g fill="#ffffff" fill-opacity="1"><g transform="translate(314.605761, 557.161864)"><g><path d="M 14.859375 -5.140625 L 16.265625 -1.140625 C 15.679688 -0.648438 14.945312 -0.269531 14.0625 0 C 13.175781 0.269531 12.175781 0.40625 11.0625 0.40625 C 8.726562 0.40625 6.953125 -0.226562 5.734375 -1.5 C 4.523438 -2.769531 3.921875 -4.613281 3.921875 -7.03125 L 3.921875 -17.265625 L 0.640625 -17.265625 L 0.640625 -21.5625 L 3.921875 -21.5625 L 3.921875 -25.765625 L 9.34375 -26.640625 L 9.34375 -21.5625 L 15.453125 -21.5625 L 15.453125 -17.265625 L 9.34375 -17.265625 L 9.34375 -7.421875 C 9.34375 -6.359375 9.5625 -5.582031 10 -5.09375 C 10.445312 -4.601562 11.09375 -4.359375 11.9375 -4.359375 C 12.894531 -4.359375 13.734375 -4.617188 14.453125 -5.140625 Z M 14.859375 -5.140625 "/></g></g></g><g fill="#ffffff" fill-opacity="1"><g transform="translate(331.088525, 557.161864)"><g><path d="M 21.296875 -9.546875 L 7.4375 -9.546875 C 7.59375 -7.671875 8.125 -6.304688 9.03125 -5.453125 C 9.945312 -4.609375 11.195312 -4.1875 12.78125 -4.1875 C 14.007812 -4.1875 15.007812 -4.414062 15.78125 -4.875 C 16.550781 -5.332031 17.171875 -6.03125 17.640625 -6.96875 L 18.046875 -6.96875 L 21.640625 -4.671875 C 20.941406 -3.160156 19.878906 -1.9375 18.453125 -1 C 17.035156 -0.0625 15.144531 0.40625 12.78125 0.40625 C 10.550781 0.40625 8.625 -0.015625 7 -0.859375 C 5.382812 -1.703125 4.132812 -2.960938 3.25 -4.640625 C 2.375 -6.316406 1.9375 -8.359375 1.9375 -10.765625 C 1.9375 -13.210938 2.394531 -15.273438 3.3125 -16.953125 C 4.238281 -18.628906 5.488281 -19.878906 7.0625 -20.703125 C 8.644531 -21.535156 10.421875 -21.953125 12.390625 -21.953125 C 15.429688 -21.953125 17.757812 -21.144531 19.375 -19.53125 C 21 -17.914062 21.8125 -15.546875 21.8125 -12.421875 C 21.8125 -11.285156 21.773438 -10.40625 21.703125 -9.78125 Z M 16.640625 -13.046875 C 16.585938 -14.691406 16.207031 -15.882812 15.5 -16.625 C 14.789062 -17.375 13.753906 -17.75 12.390625 -17.75 C 9.648438 -17.75 8.039062 -16.179688 7.5625 -13.046875 Z M 16.640625 -13.046875 "/></g></g></g><g fill="#ffffff" fill-opacity="1"><g transform="translate(354.504211, 557.161864)"><g><path d="M 3.109375 0 L 3.109375 -21.546875 L 8.359375 -21.546875 L 8.359375 -18.34375 L 8.765625 -18.265625 C 9.285156 -19.460938 9.96875 -20.335938 10.8125 -20.890625 C 11.664062 -21.453125 12.695312 -21.734375 13.90625 -21.734375 C 15.132812 -21.734375 16.066406 -21.523438 16.703125 -21.109375 L 15.78125 -16.453125 L 15.375 -16.375 C 15.019531 -16.507812 14.679688 -16.609375 14.359375 -16.671875 C 14.035156 -16.742188 13.640625 -16.78125 13.171875 -16.78125 C 11.660156 -16.78125 10.503906 -16.25 9.703125 -15.1875 C 8.910156 -14.125 8.515625 -12.421875 8.515625 -10.078125 L 8.515625 0 Z M 3.109375 0 "/></g></g></g><g fill="#ffffff" fill-opacity="1"><g transform="translate(370.83073, 557.161864)"><g><path d="M 21.296875 -9.546875 L 7.4375 -9.546875 C 7.59375 -7.671875 8.125 -6.304688 9.03125 -5.453125 C 9.945312 -4.609375 11.195312 -4.1875 12.78125 -4.1875 C 14.007812 -4.1875 15.007812 -4.414062 15.78125 -4.875 C 16.550781 -5.332031 17.171875 -6.03125 17.640625 -6.96875 L 18.046875 -6.96875 L 21.640625 -4.671875 C 20.941406 -3.160156 19.878906 -1.9375 18.453125 -1 C 17.035156 -0.0625 15.144531 0.40625 12.78125 0.40625 C 10.550781 0.40625 8.625 -0.015625 7 -0.859375 C 5.382812 -1.703125 4.132812 -2.960938 3.25 -4.640625 C 2.375 -6.316406 1.9375 -8.359375 1.9375 -10.765625 C 1.9375 -13.210938 2.394531 -15.273438 3.3125 -16.953125 C 4.238281 -18.628906 5.488281 -19.878906 7.0625 -20.703125 C 8.644531 -21.535156 10.421875 -21.953125 12.390625 -21.953125 C 15.429688 -21.953125 17.757812 -21.144531 19.375 -19.53125 C 21 -17.914062 21.8125 -15.546875 21.8125 -12.421875 C 21.8125 -11.285156 21.773438 -10.40625 21.703125 -9.78125 Z M 16.640625 -13.046875 C 16.585938 -14.691406 16.207031 -15.882812 15.5 -16.625 C 14.789062 -17.375 13.753906 -17.75 12.390625 -17.75 C 9.648438 -17.75 8.039062 -16.179688 7.5625 -13.046875 Z M 16.640625 -13.046875 "/></g></g></g><g fill="#ffffff" fill-opacity="1"><g transform="translate(394.246416, 557.161864)"><g><path d="M 10.078125 0.40625 C 8.609375 0.40625 7.257812 0.234375 6.03125 -0.109375 C 4.8125 -0.453125 3.769531 -0.925781 2.90625 -1.53125 C 2.039062 -2.132812 1.398438 -2.828125 0.984375 -3.609375 L 3.984375 -6.859375 L 4.390625 -6.859375 C 5.109375 -5.890625 5.957031 -5.164062 6.9375 -4.6875 C 7.914062 -4.207031 8.976562 -3.96875 10.125 -3.96875 C 11.175781 -3.96875 11.96875 -4.15625 12.5 -4.53125 C 13.03125 -4.90625 13.296875 -5.445312 13.296875 -6.15625 C 13.296875 -6.695312 13.101562 -7.15625 12.71875 -7.53125 C 12.34375 -7.90625 11.722656 -8.195312 10.859375 -8.40625 L 8.015625 -9.078125 C 5.878906 -9.585938 4.316406 -10.363281 3.328125 -11.40625 C 2.347656 -12.457031 1.859375 -13.789062 1.859375 -15.40625 C 1.859375 -16.75 2.195312 -17.914062 2.875 -18.90625 C 3.5625 -19.894531 4.523438 -20.648438 5.765625 -21.171875 C 7.015625 -21.691406 8.46875 -21.953125 10.125 -21.953125 C 12.0625 -21.953125 13.664062 -21.671875 14.9375 -21.109375 C 16.21875 -20.554688 17.21875 -19.8125 17.9375 -18.875 L 15.046875 -15.75 L 14.65625 -15.75 C 14.050781 -16.425781 13.375 -16.921875 12.625 -17.234375 C 11.875 -17.546875 11.039062 -17.703125 10.125 -17.703125 C 7.988281 -17.703125 6.921875 -17.035156 6.921875 -15.703125 C 6.921875 -15.140625 7.117188 -14.679688 7.515625 -14.328125 C 7.910156 -13.984375 8.609375 -13.703125 9.609375 -13.484375 L 12.265625 -12.890625 C 14.453125 -12.421875 16.050781 -11.664062 17.0625 -10.625 C 18.070312 -9.59375 18.578125 -8.207031 18.578125 -6.46875 C 18.578125 -5.101562 18.238281 -3.898438 17.5625 -2.859375 C 16.882812 -1.816406 15.90625 -1.007812 14.625 -0.4375 C 13.351562 0.125 11.835938 0.40625 10.078125 0.40625 Z M 10.078125 0.40625 "/></g></g></g><g fill="#ffffff" fill-opacity="1"><g transform="translate(414.107762, 557.161864)"><g><path d="M 14.859375 -5.140625 L 16.265625 -1.140625 C 15.679688 -0.648438 14.945312 -0.269531 14.0625 0 C 13.175781 0.269531 12.175781 0.40625 11.0625 0.40625 C 8.726562 0.40625 6.953125 -0.226562 5.734375 -1.5 C 4.523438 -2.769531 3.921875 -4.613281 3.921875 -7.03125 L 3.921875 -17.265625 L 0.640625 -17.265625 L 0.640625 -21.5625 L 3.921875 -21.5625 L 3.921875 -25.765625 L 9.34375 -26.640625 L 9.34375 -21.5625 L 15.453125 -21.5625 L 15.453125 -17.265625 L 9.34375 -17.265625 L 9.34375 -7.421875 C 9.34375 -6.359375 9.5625 -5.582031 10 -5.09375 C 10.445312 -4.601562 11.09375 -4.359375 11.9375 -4.359375 C 12.894531 -4.359375 13.734375 -4.617188 14.453125 -5.140625 Z M 14.859375 -5.140625 "/></g></g></g><g fill="#ffffff" fill-opacity="1"><g transform="translate(430.844413, 557.161864)"><g/></g></g><g fill="#ffffff" fill-opacity="1"><g transform="translate(440.277091, 557.161864)"><g><path d="M 10.640625 0.40625 C 8.941406 0.40625 7.4375 -0.00390625 6.125 -0.828125 C 4.8125 -1.660156 3.785156 -2.910156 3.046875 -4.578125 C 2.304688 -6.253906 1.9375 -8.316406 1.9375 -10.765625 C 1.9375 -13.222656 2.316406 -15.285156 3.078125 -16.953125 C 3.835938 -18.628906 4.890625 -19.878906 6.234375 -20.703125 C 7.585938 -21.535156 9.148438 -21.953125 10.921875 -21.953125 C 12.265625 -21.953125 13.425781 -21.71875 14.40625 -21.25 C 15.382812 -20.789062 16.210938 -20.078125 16.890625 -19.109375 L 17.3125 -19.203125 L 17.3125 -30.203125 L 22.71875 -30.203125 L 22.71875 0 L 17.3125 0 L 17.3125 -2.796875 L 16.890625 -2.875 C 16.296875 -1.851562 15.476562 -1.050781 14.4375 -0.46875 C 13.394531 0.113281 12.128906 0.40625 10.640625 0.40625 Z M 12.40625 -4.1875 C 13.925781 -4.1875 15.128906 -4.726562 16.015625 -5.8125 C 16.898438 -6.894531 17.34375 -8.546875 17.34375 -10.765625 C 17.34375 -12.972656 16.898438 -14.625 16.015625 -15.71875 C 15.128906 -16.8125 13.925781 -17.359375 12.40625 -17.359375 C 10.8125 -17.359375 9.59375 -16.828125 8.75 -15.765625 C 7.914062 -14.710938 7.5 -13.046875 7.5 -10.765625 C 7.5 -8.492188 7.914062 -6.828125 8.75 -5.765625 C 9.59375 -4.710938 10.8125 -4.1875 12.40625 -4.1875 Z M 12.40625 -4.1875 "/></g></g></g><g fill="#ffffff" fill-opacity="1"><g transform="translate(466.094881, 557.161864)"><g><path d="M 21.296875 -9.546875 L 7.4375 -9.546875 C 7.59375 -7.671875 8.125 -6.304688 9.03125 -5.453125 C 9.945312 -4.609375 11.195312 -4.1875 12.78125 -4.1875 C 14.007812 -4.1875 15.007812 -4.414062 15.78125 -4.875 C 16.550781 -5.332031 17.171875 -6.03125 17.640625 -6.96875 L 18.046875 -6.96875 L 21.640625 -4.671875 C 20.941406 -3.160156 19.878906 -1.9375 18.453125 -1 C 17.035156 -0.0625 15.144531 0.40625 12.78125 0.40625 C 10.550781 0.40625 8.625 -0.015625 7 -0.859375 C 5.382812 -1.703125 4.132812 -2.960938 3.25 -4.640625 C 2.375 -6.316406 1.9375 -8.359375 1.9375 -10.765625 C 1.9375 -13.210938 2.394531 -15.273438 3.3125 -16.953125 C 4.238281 -18.628906 5.488281 -19.878906 7.0625 -20.703125 C 8.644531 -21.535156 10.421875 -21.953125 12.390625 -21.953125 C 15.429688 -21.953125 17.757812 -21.144531 19.375 -19.53125 C 21 -17.914062 21.8125 -15.546875 21.8125 -12.421875 C 21.8125 -11.285156 21.773438 -10.40625 21.703125 -9.78125 Z M 16.640625 -13.046875 C 16.585938 -14.691406 16.207031 -15.882812 15.5 -16.625 C 14.789062 -17.375 13.753906 -17.75 12.390625 -17.75 C 9.648438 -17.75 8.039062 -16.179688 7.5625 -13.046875 Z M 16.640625 -13.046875 "/></g></g></g><g fill="#ffffff" fill-opacity="1"><g transform="translate(489.510578, 557.161864)"><g><path d="M 15.0625 0.40625 C 12.3125 0.40625 10.265625 -0.617188 8.921875 -2.671875 L 8.515625 -2.59375 L 8.515625 0 L 3.109375 0 L 3.109375 -30.203125 L 8.515625 -30.203125 L 8.515625 -19 L 8.921875 -18.921875 C 9.671875 -19.953125 10.546875 -20.710938 11.546875 -21.203125 C 12.554688 -21.703125 13.765625 -21.953125 15.171875 -21.953125 C 16.921875 -21.953125 18.445312 -21.539062 19.75 -20.71875 C 21.050781 -19.90625 22.066406 -18.660156 22.796875 -16.984375 C 23.523438 -15.304688 23.890625 -13.234375 23.890625 -10.765625 C 23.890625 -8.316406 23.507812 -6.253906 22.75 -4.578125 C 22 -2.910156 20.957031 -1.660156 19.625 -0.828125 C 18.300781 -0.00390625 16.78125 0.40625 15.0625 0.40625 Z M 13.421875 -4.1875 C 15.003906 -4.1875 16.210938 -4.710938 17.046875 -5.765625 C 17.878906 -6.828125 18.296875 -8.492188 18.296875 -10.765625 C 18.296875 -13.046875 17.878906 -14.710938 17.046875 -15.765625 C 16.210938 -16.828125 15.003906 -17.359375 13.421875 -17.359375 C 11.898438 -17.359375 10.691406 -16.8125 9.796875 -15.71875 C 8.898438 -14.625 8.453125 -12.972656 8.453125 -10.765625 C 8.453125 -8.546875 8.898438 -6.894531 9.796875 -5.8125 C 10.691406 -4.726562 11.898438 -4.1875 13.421875 -4.1875 Z M 13.421875 -4.1875 "/></g></g></g><g fill="#ffffff" fill-opacity="1"><g transform="translate(515.308833, 557.161864)"><g><path d="M 14.859375 -5.140625 L 16.265625 -1.140625 C 15.679688 -0.648438 14.945312 -0.269531 14.0625 0 C 13.175781 0.269531 12.175781 0.40625 11.0625 0.40625 C 8.726562 0.40625 6.953125 -0.226562 5.734375 -1.5 C 4.523438 -2.769531 3.921875 -4.613281 3.921875 -7.03125 L 3.921875 -17.265625 L 0.640625 -17.265625 L 0.640625 -21.5625 L 3.921875 -21.5625 L 3.921875 -25.765625 L 9.34375 -26.640625 L 9.34375 -21.5625 L 15.453125 -21.5625 L 15.453125 -17.265625 L 9.34375 -17.265625 L 9.34375 -7.421875 C 9.34375 -6.359375 9.5625 -5.582031 10 -5.09375 C 10.445312 -4.601562 11.09375 -4.359375 11.9375 -4.359375 C 12.894531 -4.359375 13.734375 -4.617188 14.453125 -5.140625 Z M 14.859375 -5.140625 "/></g></g></g><g fill="#ffffff" fill-opacity="1"><g transform="translate(334.199197, 322.411907)"><g><path d="M 10.125 0.328125 C 8.539062 0.328125 7.128906 0.132812 5.890625 -0.25 C 4.660156 -0.644531 3.632812 -1.160156 2.8125 -1.796875 C 1.988281 -2.429688 1.359375 -3.128906 0.921875 -3.890625 L 3.40625 -6.921875 L 3.796875 -6.921875 C 4.484375 -5.898438 5.351562 -5.085938 6.40625 -4.484375 C 7.46875 -3.878906 8.707031 -3.578125 10.125 -3.578125 C 11.332031 -3.578125 12.242188 -3.832031 12.859375 -4.34375 C 13.472656 -4.851562 13.78125 -5.554688 13.78125 -6.453125 C 13.78125 -6.992188 13.679688 -7.445312 13.484375 -7.8125 C 13.285156 -8.175781 12.957031 -8.488281 12.5 -8.75 C 12.039062 -9.007812 11.421875 -9.234375 10.640625 -9.421875 L 7.703125 -10.09375 C 5.648438 -10.5625 4.117188 -11.335938 3.109375 -12.421875 C 2.109375 -13.515625 1.609375 -14.929688 1.609375 -16.671875 C 1.609375 -17.960938 1.929688 -19.097656 2.578125 -20.078125 C 3.222656 -21.054688 4.160156 -21.816406 5.390625 -22.359375 C 6.628906 -22.898438 8.109375 -23.171875 9.828125 -23.171875 C 11.585938 -23.171875 13.09375 -22.9375 14.34375 -22.46875 C 15.601562 -22.007812 16.664062 -21.300781 17.53125 -20.34375 L 15.296875 -17.28125 L 14.90625 -17.28125 C 14.257812 -17.957031 13.519531 -18.460938 12.6875 -18.796875 C 11.851562 -19.140625 10.898438 -19.3125 9.828125 -19.3125 C 8.585938 -19.3125 7.644531 -19.09375 7 -18.65625 C 6.351562 -18.21875 6.03125 -17.613281 6.03125 -16.84375 C 6.03125 -16.125 6.253906 -15.550781 6.703125 -15.125 C 7.160156 -14.695312 7.945312 -14.363281 9.0625 -14.125 L 12.0625 -13.5 C 14.28125 -13.03125 15.890625 -12.234375 16.890625 -11.109375 C 17.890625 -9.992188 18.390625 -8.535156 18.390625 -6.734375 C 18.390625 -5.304688 18.082031 -4.0625 17.46875 -3 C 16.851562 -1.945312 15.925781 -1.128906 14.6875 -0.546875 C 13.445312 0.0351562 11.925781 0.328125 10.125 0.328125 Z M 10.125 0.328125 "/></g></g></g><g fill="#ffffff" fill-opacity="1"><g transform="translate(353.819404, 322.411907)"><g><path d="M 6.71875 0.328125 C 5.613281 0.328125 4.65625 0.125 3.84375 -0.28125 C 3.03125 -0.6875 2.40625 -1.28125 1.96875 -2.0625 C 1.53125 -2.851562 1.3125 -3.800781 1.3125 -4.90625 C 1.3125 -5.925781 1.53125 -6.78125 1.96875 -7.46875 C 2.40625 -8.164062 3.082031 -8.734375 4 -9.171875 C 4.914062 -9.617188 6.113281 -9.960938 7.59375 -10.203125 C 8.625 -10.367188 9.40625 -10.550781 9.9375 -10.75 C 10.476562 -10.945312 10.84375 -11.171875 11.03125 -11.421875 C 11.21875 -11.671875 11.3125 -11.988281 11.3125 -12.375 C 11.3125 -12.925781 11.117188 -13.347656 10.734375 -13.640625 C 10.347656 -13.929688 9.707031 -14.078125 8.8125 -14.078125 C 7.851562 -14.078125 6.941406 -13.863281 6.078125 -13.4375 C 5.210938 -13.007812 4.460938 -12.445312 3.828125 -11.75 L 3.515625 -11.75 L 1.703125 -14.484375 C 2.578125 -15.453125 3.644531 -16.207031 4.90625 -16.75 C 6.164062 -17.289062 7.539062 -17.5625 9.03125 -17.5625 C 11.3125 -17.5625 12.960938 -17.078125 13.984375 -16.109375 C 15.003906 -15.140625 15.515625 -13.765625 15.515625 -11.984375 L 15.515625 -4.5 C 15.515625 -3.726562 15.851562 -3.34375 16.53125 -3.34375 C 16.789062 -3.34375 17.046875 -3.390625 17.296875 -3.484375 L 17.515625 -3.421875 L 17.828125 -0.40625 C 17.585938 -0.25 17.253906 -0.117188 16.828125 -0.015625 C 16.398438 0.078125 15.929688 0.125 15.421875 0.125 C 14.390625 0.125 13.582031 -0.0703125 13 -0.46875 C 12.425781 -0.863281 12.015625 -1.484375 11.765625 -2.328125 L 11.4375 -2.359375 C 10.59375 -0.566406 9.019531 0.328125 6.71875 0.328125 Z M 8.09375 -2.90625 C 9.09375 -2.90625 9.890625 -3.238281 10.484375 -3.90625 C 11.085938 -4.582031 11.390625 -5.519531 11.390625 -6.71875 L 11.390625 -8.46875 L 11.09375 -8.53125 C 10.832031 -8.320312 10.488281 -8.144531 10.0625 -8 C 9.644531 -7.863281 9.039062 -7.726562 8.25 -7.59375 C 7.3125 -7.4375 6.632812 -7.164062 6.21875 -6.78125 C 5.8125 -6.40625 5.609375 -5.867188 5.609375 -5.171875 C 5.609375 -4.429688 5.828125 -3.867188 6.265625 -3.484375 C 6.703125 -3.097656 7.3125 -2.90625 8.09375 -2.90625 Z M 8.09375 -2.90625 "/></g></g></g><g fill="#ffffff" fill-opacity="1"><g transform="translate(371.986841, 322.411907)"><g><path d="M 11.859375 0 L 6.703125 0 L 0.328125 -17.234375 L 4.859375 -17.234375 L 9.140625 -4.953125 L 9.5 -4.953125 L 13.796875 -17.234375 L 18.21875 -17.234375 Z M 11.859375 0 "/></g></g></g><g fill="#ffffff" fill-opacity="1"><g transform="translate(390.513566, 322.411907)"><g><path d="M 17.03125 -7.640625 L 5.953125 -7.640625 C 6.078125 -6.140625 6.503906 -5.046875 7.234375 -4.359375 C 7.960938 -3.679688 8.957031 -3.34375 10.21875 -3.34375 C 11.207031 -3.34375 12.007812 -3.523438 12.625 -3.890625 C 13.238281 -4.265625 13.734375 -4.828125 14.109375 -5.578125 L 14.4375 -5.578125 L 17.3125 -3.734375 C 16.75 -2.523438 15.898438 -1.546875 14.765625 -0.796875 C 13.628906 -0.046875 12.113281 0.328125 10.21875 0.328125 C 8.4375 0.328125 6.894531 -0.0078125 5.59375 -0.6875 C 4.300781 -1.363281 3.300781 -2.367188 2.59375 -3.703125 C 1.894531 -5.046875 1.546875 -6.679688 1.546875 -8.609375 C 1.546875 -10.566406 1.914062 -12.21875 2.65625 -13.5625 C 3.394531 -14.90625 4.394531 -15.90625 5.65625 -16.5625 C 6.914062 -17.226562 8.332031 -17.5625 9.90625 -17.5625 C 12.34375 -17.5625 14.207031 -16.914062 15.5 -15.625 C 16.800781 -14.332031 17.453125 -12.4375 17.453125 -9.9375 C 17.453125 -9.03125 17.421875 -8.328125 17.359375 -7.828125 Z M 13.3125 -10.4375 C 13.269531 -11.75 12.960938 -12.703125 12.390625 -13.296875 C 11.828125 -13.898438 11 -14.203125 9.90625 -14.203125 C 7.71875 -14.203125 6.429688 -12.945312 6.046875 -10.4375 Z M 13.3125 -10.4375 "/></g></g></g><g fill="#ffffff" fill-opacity="1"><g transform="translate(409.243366, 322.411907)"><g/></g></g><g fill="#ffffff" fill-opacity="1"><g transform="translate(416.788398, 322.411907)"><g><path d="M 6.71875 0.328125 C 5.613281 0.328125 4.65625 0.125 3.84375 -0.28125 C 3.03125 -0.6875 2.40625 -1.28125 1.96875 -2.0625 C 1.53125 -2.851562 1.3125 -3.800781 1.3125 -4.90625 C 1.3125 -5.925781 1.53125 -6.78125 1.96875 -7.46875 C 2.40625 -8.164062 3.082031 -8.734375 4 -9.171875 C 4.914062 -9.617188 6.113281 -9.960938 7.59375 -10.203125 C 8.625 -10.367188 9.40625 -10.550781 9.9375 -10.75 C 10.476562 -10.945312 10.84375 -11.171875 11.03125 -11.421875 C 11.21875 -11.671875 11.3125 -11.988281 11.3125 -12.375 C 11.3125 -12.925781 11.117188 -13.347656 10.734375 -13.640625 C 10.347656 -13.929688 9.707031 -14.078125 8.8125 -14.078125 C 7.851562 -14.078125 6.941406 -13.863281 6.078125 -13.4375 C 5.210938 -13.007812 4.460938 -12.445312 3.828125 -11.75 L 3.515625 -11.75 L 1.703125 -14.484375 C 2.578125 -15.453125 3.644531 -16.207031 4.90625 -16.75 C 6.164062 -17.289062 7.539062 -17.5625 9.03125 -17.5625 C 11.3125 -17.5625 12.960938 -17.078125 13.984375 -16.109375 C 15.003906 -15.140625 15.515625 -13.765625 15.515625 -11.984375 L 15.515625 -4.5 C 15.515625 -3.726562 15.851562 -3.34375 16.53125 -3.34375 C 16.789062 -3.34375 17.046875 -3.390625 17.296875 -3.484375 L 17.515625 -3.421875 L 17.828125 -0.40625 C 17.585938 -0.25 17.253906 -0.117188 16.828125 -0.015625 C 16.398438 0.078125 15.929688 0.125 15.421875 0.125 C 14.390625 0.125 13.582031 -0.0703125 13 -0.46875 C 12.425781 -0.863281 12.015625 -1.484375 11.765625 -2.328125 L 11.4375 -2.359375 C 10.59375 -0.566406 9.019531 0.328125 6.71875 0.328125 Z M 8.09375 -2.90625 C 9.09375 -2.90625 9.890625 -3.238281 10.484375 -3.90625 C 11.085938 -4.582031 11.390625 -5.519531 11.390625 -6.71875 L 11.390625 -8.46875 L 11.09375 -8.53125 C 10.832031 -8.320312 10.488281 -8.144531 10.0625 -8 C 9.644531 -7.863281 9.039062 -7.726562 8.25 -7.59375 C 7.3125 -7.4375 6.632812 -7.164062 6.21875 -6.78125 C 5.8125 -6.40625 5.609375 -5.867188 5.609375 -5.171875 C 5.609375 -4.429688 5.828125 -3.867188 6.265625 -3.484375 C 6.703125 -3.097656 7.3125 -2.90625 8.09375 -2.90625 Z M 8.09375 -2.90625 "/></g></g></g><g fill="#ffffff" fill-opacity="1"><g transform="translate(434.955836, 322.411907)"><g><path d="M 2.484375 0 L 2.484375 -17.234375 L 6.640625 -17.234375 L 6.640625 -14.703125 L 6.96875 -14.625 C 8.039062 -16.582031 9.78125 -17.5625 12.1875 -17.5625 C 14.175781 -17.5625 15.632812 -17.019531 16.5625 -15.9375 C 17.5 -14.851562 17.96875 -13.273438 17.96875 -11.203125 L 17.96875 0 L 13.640625 0 L 13.640625 -10.671875 C 13.640625 -11.816406 13.410156 -12.640625 12.953125 -13.140625 C 12.492188 -13.648438 11.757812 -13.90625 10.75 -13.90625 C 9.507812 -13.90625 8.539062 -13.503906 7.84375 -12.703125 C 7.15625 -11.898438 6.8125 -10.640625 6.8125 -8.921875 L 6.8125 0 Z M 2.484375 0 "/></g></g></g><g fill="#ffffff" fill-opacity="1"><g transform="translate(455.138406, 322.411907)"><g><path d="M 8.515625 0.328125 C 7.148438 0.328125 5.941406 0 4.890625 -0.65625 C 3.847656 -1.320312 3.03125 -2.320312 2.4375 -3.65625 C 1.84375 -5 1.546875 -6.648438 1.546875 -8.609375 C 1.546875 -10.578125 1.847656 -12.226562 2.453125 -13.5625 C 3.066406 -14.90625 3.910156 -15.90625 4.984375 -16.5625 C 6.066406 -17.226562 7.316406 -17.5625 8.734375 -17.5625 C 9.804688 -17.5625 10.734375 -17.375 11.515625 -17 C 12.304688 -16.632812 12.972656 -16.0625 13.515625 -15.28125 L 13.84375 -15.359375 L 13.84375 -24.15625 L 18.171875 -24.15625 L 18.171875 0 L 13.84375 0 L 13.84375 -2.234375 L 13.515625 -2.296875 C 13.035156 -1.484375 12.378906 -0.84375 11.546875 -0.375 C 10.710938 0.09375 9.703125 0.328125 8.515625 0.328125 Z M 9.921875 -3.34375 C 11.140625 -3.34375 12.101562 -3.773438 12.8125 -4.640625 C 13.519531 -5.515625 13.875 -6.835938 13.875 -8.609375 C 13.875 -10.378906 13.519531 -11.703125 12.8125 -12.578125 C 12.101562 -13.453125 11.140625 -13.890625 9.921875 -13.890625 C 8.648438 -13.890625 7.675781 -13.460938 7 -12.609375 C 6.332031 -11.765625 6 -10.429688 6 -8.609375 C 6 -6.796875 6.332031 -5.460938 7 -4.609375 C 7.675781 -3.765625 8.648438 -3.34375 9.921875 -3.34375 Z M 9.921875 -3.34375 "/></g></g></g><g fill="#ffffff" fill-opacity="1"><g transform="translate(356.992164, 366.661905)"><g><path d="M 4.640625 -19.296875 C 3.859375 -19.296875 3.222656 -19.53125 2.734375 -20 C 2.242188 -20.476562 2 -21.09375 2 -21.84375 C 2 -22.582031 2.242188 -23.1875 2.734375 -23.65625 C 3.222656 -24.132812 3.859375 -24.375 4.640625 -24.375 C 5.160156 -24.375 5.625 -24.265625 6.03125 -24.046875 C 6.4375 -23.828125 6.75 -23.523438 6.96875 -23.140625 C 7.195312 -22.765625 7.3125 -22.332031 7.3125 -21.84375 C 7.3125 -21.351562 7.195312 -20.914062 6.96875 -20.53125 C 6.75 -20.144531 6.4375 -19.84375 6.03125 -19.625 C 5.625 -19.40625 5.160156 -19.296875 4.640625 -19.296875 Z M 2.484375 0 L 2.484375 -17.234375 L 6.8125 -17.234375 L 6.8125 0 Z M 2.484375 0 "/></g></g></g><g fill="#ffffff" fill-opacity="1"><g transform="translate(366.271148, 366.661905)"><g><path d="M 2.484375 0 L 2.484375 -17.234375 L 6.640625 -17.234375 L 6.640625 -14.703125 L 6.96875 -14.625 C 8.039062 -16.582031 9.78125 -17.5625 12.1875 -17.5625 C 14.175781 -17.5625 15.632812 -17.019531 16.5625 -15.9375 C 17.5 -14.851562 17.96875 -13.273438 17.96875 -11.203125 L 17.96875 0 L 13.640625 0 L 13.640625 -10.671875 C 13.640625 -11.816406 13.410156 -12.640625 12.953125 -13.140625 C 12.492188 -13.648438 11.757812 -13.90625 10.75 -13.90625 C 9.507812 -13.90625 8.539062 -13.503906 7.84375 -12.703125 C 7.15625 -11.898438 6.8125 -10.640625 6.8125 -8.921875 L 6.8125 0 Z M 2.484375 0 "/></g></g></g><g fill="#ffffff" fill-opacity="1"><g transform="translate(386.453718, 366.661905)"><g><path d="M 11.859375 0 L 6.703125 0 L 0.328125 -17.234375 L 4.859375 -17.234375 L 9.140625 -4.953125 L 9.5 -4.953125 L 13.796875 -17.234375 L 18.21875 -17.234375 Z M 11.859375 0 "/></g></g></g><g fill="#ffffff" fill-opacity="1"><g transform="translate(404.980443, 366.661905)"><g><path d="M 17.03125 -7.640625 L 5.953125 -7.640625 C 6.078125 -6.140625 6.503906 -5.046875 7.234375 -4.359375 C 7.960938 -3.679688 8.957031 -3.34375 10.21875 -3.34375 C 11.207031 -3.34375 12.007812 -3.523438 12.625 -3.890625 C 13.238281 -4.265625 13.734375 -4.828125 14.109375 -5.578125 L 14.4375 -5.578125 L 17.3125 -3.734375 C 16.75 -2.523438 15.898438 -1.546875 14.765625 -0.796875 C 13.628906 -0.046875 12.113281 0.328125 10.21875 0.328125 C 8.4375 0.328125 6.894531 -0.0078125 5.59375 -0.6875 C 4.300781 -1.363281 3.300781 -2.367188 2.59375 -3.703125 C 1.894531 -5.046875 1.546875 -6.679688 1.546875 -8.609375 C 1.546875 -10.566406 1.914062 -12.21875 2.65625 -13.5625 C 3.394531 -14.90625 4.394531 -15.90625 5.65625 -16.5625 C 6.914062 -17.226562 8.332031 -17.5625 9.90625 -17.5625 C 12.34375 -17.5625 14.207031 -16.914062 15.5 -15.625 C 16.800781 -14.332031 17.453125 -12.4375 17.453125 -9.9375 C 17.453125 -9.03125 17.421875 -8.328125 17.359375 -7.828125 Z M 13.3125 -10.4375 C 13.269531 -11.75 12.960938 -12.703125 12.390625 -13.296875 C 11.828125 -13.898438 11 -14.203125 9.90625 -14.203125 C 7.71875 -14.203125 6.429688 -12.945312 6.046875 -10.4375 Z M 13.3125 -10.4375 "/></g></g></g><g fill="#ffffff" fill-opacity="1"><g transform="translate(423.710243, 366.661905)"><g><path d="M 8.0625 0.328125 C 6.882812 0.328125 5.804688 0.191406 4.828125 -0.078125 C 3.847656 -0.359375 3.007812 -0.738281 2.3125 -1.21875 C 1.625 -1.707031 1.113281 -2.265625 0.78125 -2.890625 L 3.1875 -5.484375 L 3.515625 -5.484375 C 4.085938 -4.710938 4.765625 -4.132812 5.546875 -3.75 C 6.328125 -3.363281 7.175781 -3.171875 8.09375 -3.171875 C 8.9375 -3.171875 9.570312 -3.320312 10 -3.625 C 10.425781 -3.925781 10.640625 -4.359375 10.640625 -4.921875 C 10.640625 -5.359375 10.484375 -5.722656 10.171875 -6.015625 C 9.867188 -6.316406 9.375 -6.550781 8.6875 -6.71875 L 6.40625 -7.265625 C 4.695312 -7.671875 3.445312 -8.289062 2.65625 -9.125 C 1.875 -9.96875 1.484375 -11.035156 1.484375 -12.328125 C 1.484375 -13.398438 1.753906 -14.332031 2.296875 -15.125 C 2.847656 -15.914062 3.617188 -16.519531 4.609375 -16.9375 C 5.609375 -17.351562 6.769531 -17.5625 8.09375 -17.5625 C 9.644531 -17.5625 10.929688 -17.335938 11.953125 -16.890625 C 12.972656 -16.441406 13.769531 -15.84375 14.34375 -15.09375 L 12.03125 -12.59375 L 11.71875 -12.59375 C 11.238281 -13.132812 10.695312 -13.53125 10.09375 -13.78125 C 9.5 -14.03125 8.832031 -14.15625 8.09375 -14.15625 C 6.382812 -14.15625 5.53125 -13.625 5.53125 -12.5625 C 5.53125 -12.113281 5.6875 -11.75 6 -11.46875 C 6.320312 -11.1875 6.882812 -10.957031 7.6875 -10.78125 L 9.8125 -10.3125 C 11.5625 -9.9375 12.835938 -9.332031 13.640625 -8.5 C 14.453125 -7.675781 14.859375 -6.566406 14.859375 -5.171875 C 14.859375 -4.078125 14.585938 -3.113281 14.046875 -2.28125 C 13.503906 -1.445312 12.722656 -0.800781 11.703125 -0.34375 C 10.679688 0.101562 9.46875 0.328125 8.0625 0.328125 Z M 8.0625 0.328125 "/></g></g></g><g fill="#ffffff" fill-opacity="1"><g transform="translate(439.596987, 366.661905)"><g><path d="M 11.890625 -4.109375 L 13.015625 -0.90625 C 12.546875 -0.519531 11.957031 -0.21875 11.25 0 C 10.539062 0.21875 9.738281 0.328125 8.84375 0.328125 C 6.976562 0.328125 5.5625 -0.175781 4.59375 -1.1875 C 3.625 -2.207031 3.140625 -3.6875 3.140625 -5.625 L 3.140625 -13.8125 L 0.515625 -13.8125 L 0.515625 -17.25 L 3.140625 -17.25 L 3.140625 -20.609375 L 7.46875 -21.3125 L 7.46875 -17.25 L 12.359375 -17.25 L 12.359375 -13.8125 L 7.46875 -13.8125 L 7.46875 -5.9375 C 7.46875 -5.082031 7.644531 -4.457031 8 -4.0625 C 8.351562 -3.675781 8.867188 -3.484375 9.546875 -3.484375 C 10.316406 -3.484375 10.988281 -3.691406 11.5625 -4.109375 Z M 11.890625 -4.109375 "/></g></g></g><g fill="#ffffff" fill-opacity="1"><g transform="translate(322.445289, 143.161902)"><g><path d="M 9.34375 0.25 C 7.769531 0.25 6.382812 -0.0664062 5.1875 -0.703125 C 3.988281 -1.347656 3.046875 -2.328125 2.359375 -3.640625 C 1.679688 -4.960938 1.34375 -6.601562 1.34375 -8.5625 C 1.34375 -10.53125 1.679688 -12.171875 2.359375 -13.484375 C 3.046875 -14.796875 3.988281 -15.769531 5.1875 -16.40625 C 6.382812 -17.050781 7.769531 -17.375 9.34375 -17.375 C 10.914062 -17.375 12.296875 -17.054688 13.484375 -16.421875 C 14.679688 -15.785156 15.617188 -14.804688 16.296875 -13.484375 C 16.972656 -12.171875 17.3125 -10.53125 17.3125 -8.5625 C 17.3125 -6.601562 16.972656 -4.960938 16.296875 -3.640625 C 15.617188 -2.328125 14.679688 -1.347656 13.484375 -0.703125 C 12.296875 -0.0664062 10.914062 0.25 9.34375 0.25 Z M 9.34375 -2.703125 C 10.789062 -2.703125 11.894531 -3.164062 12.65625 -4.09375 C 13.425781 -5.03125 13.8125 -6.519531 13.8125 -8.5625 C 13.8125 -10.613281 13.425781 -12.109375 12.65625 -13.046875 C 11.894531 -13.984375 10.789062 -14.453125 9.34375 -14.453125 C 7.882812 -14.453125 6.769531 -13.984375 6 -13.046875 C 5.226562 -12.109375 4.84375 -10.613281 4.84375 -8.5625 C 4.84375 -6.519531 5.226562 -5.03125 6 -4.09375 C 6.769531 -3.164062 7.882812 -2.703125 9.34375 -2.703125 Z M 9.34375 -2.703125 "/></g></g><g transform="translate(341.113257, 143.161902)"><g><path d="M 1.859375 5.234375 L 1.859375 -12.921875 L 5.109375 -12.921875 L 5.109375 -11.234375 L 5.359375 -11.1875 C 5.742188 -11.84375 6.253906 -12.335938 6.890625 -12.671875 C 7.535156 -13.003906 8.285156 -13.171875 9.140625 -13.171875 C 10.179688 -13.171875 11.085938 -12.925781 11.859375 -12.4375 C 12.640625 -11.945312 13.242188 -11.195312 13.671875 -10.1875 C 14.109375 -9.1875 14.328125 -7.941406 14.328125 -6.453125 C 14.328125 -4.984375 14.097656 -3.75 13.640625 -2.75 C 13.191406 -1.75 12.5625 -1 11.75 -0.5 C 10.9375 0 10 0.25 8.9375 0.25 C 8.125 0.25 7.425781 0.113281 6.84375 -0.15625 C 6.257812 -0.425781 5.765625 -0.847656 5.359375 -1.421875 L 5.109375 -1.375 L 5.109375 5.234375 Z M 8.03125 -2.515625 C 9 -2.515625 9.734375 -2.828125 10.234375 -3.453125 C 10.734375 -4.085938 10.984375 -5.085938 10.984375 -6.453125 C 10.984375 -7.828125 10.734375 -8.832031 10.234375 -9.46875 C 9.734375 -10.101562 9 -10.421875 8.03125 -10.421875 C 7.125 -10.421875 6.40625 -10.09375 5.875 -9.4375 C 5.34375 -8.78125 5.078125 -7.785156 5.078125 -6.453125 C 5.078125 -5.140625 5.34375 -4.15625 5.875 -3.5 C 6.40625 -2.84375 7.125 -2.515625 8.03125 -2.515625 Z M 8.03125 -2.515625 "/></g></g><g transform="translate(356.593725, 143.161902)"><g><path d="M 8.921875 -3.078125 L 9.765625 -0.6875 C 9.410156 -0.394531 8.96875 -0.164062 8.4375 0 C 7.90625 0.164062 7.304688 0.25 6.640625 0.25 C 5.234375 0.25 4.164062 -0.128906 3.4375 -0.890625 C 2.71875 -1.660156 2.359375 -2.769531 2.359375 -4.21875 L 2.359375 -10.359375 L 0.390625 -10.359375 L 0.390625 -12.9375 L 2.359375 -12.9375 L 2.359375 -15.453125 L 5.609375 -15.984375 L 5.609375 -12.9375 L 9.265625 -12.9375 L 9.265625 -10.359375 L 5.609375 -10.359375 L 5.609375 -4.453125 C 5.609375 -3.816406 5.738281 -3.347656 6 -3.046875 C 6.269531 -2.753906 6.65625 -2.609375 7.15625 -2.609375 C 7.738281 -2.609375 8.242188 -2.765625 8.671875 -3.078125 Z M 8.921875 -3.078125 "/></g></g><g transform="translate(366.636693, 143.161902)"><g><path d="M 3.484375 -14.46875 C 2.898438 -14.46875 2.421875 -14.644531 2.046875 -15 C 1.679688 -15.363281 1.5 -15.828125 1.5 -16.390625 C 1.5 -16.941406 1.679688 -17.394531 2.046875 -17.75 C 2.421875 -18.101562 2.898438 -18.28125 3.484375 -18.28125 C 3.867188 -18.28125 4.210938 -18.195312 4.515625 -18.03125 C 4.828125 -17.875 5.066406 -17.648438 5.234375 -17.359375 C 5.398438 -17.078125 5.484375 -16.753906 5.484375 -16.390625 C 5.484375 -16.015625 5.398438 -15.679688 5.234375 -15.390625 C 5.066406 -15.109375 4.828125 -14.882812 4.515625 -14.71875 C 4.210938 -14.550781 3.867188 -14.46875 3.484375 -14.46875 Z M 1.859375 0 L 1.859375 -12.921875 L 5.109375 -12.921875 L 5.109375 0 Z M 1.859375 0 "/></g></g><g transform="translate(373.59763, 143.161902)"><g><path d="M 1.859375 0 L 1.859375 -12.921875 L 4.984375 -12.921875 L 4.984375 -11.1875 L 5.234375 -11.140625 C 5.648438 -11.835938 6.140625 -12.347656 6.703125 -12.671875 C 7.273438 -13.003906 8.003906 -13.171875 8.890625 -13.171875 C 9.859375 -13.171875 10.640625 -12.976562 11.234375 -12.59375 C 11.828125 -12.207031 12.265625 -11.644531 12.546875 -10.90625 L 12.78125 -10.90625 C 13.1875 -11.675781 13.703125 -12.242188 14.328125 -12.609375 C 14.953125 -12.984375 15.734375 -13.171875 16.671875 -13.171875 C 19.359375 -13.171875 20.703125 -11.679688 20.703125 -8.703125 L 20.703125 0 L 17.453125 0 L 17.453125 -8.28125 C 17.453125 -9.039062 17.300781 -9.585938 17 -9.921875 C 16.707031 -10.265625 16.234375 -10.4375 15.578125 -10.4375 C 13.796875 -10.4375 12.90625 -9.242188 12.90625 -6.859375 L 12.90625 0 L 9.65625 0 L 9.65625 -8.28125 C 9.65625 -9.039062 9.503906 -9.585938 9.203125 -9.921875 C 8.898438 -10.265625 8.421875 -10.4375 7.765625 -10.4375 C 6.929688 -10.4375 6.28125 -10.15625 5.8125 -9.59375 C 5.34375 -9.03125 5.109375 -8.140625 5.109375 -6.921875 L 5.109375 0 Z M 1.859375 0 "/></g></g><g transform="translate(395.957004, 143.161902)"><g><path d="M 3.484375 -14.46875 C 2.898438 -14.46875 2.421875 -14.644531 2.046875 -15 C 1.679688 -15.363281 1.5 -15.828125 1.5 -16.390625 C 1.5 -16.941406 1.679688 -17.394531 2.046875 -17.75 C 2.421875 -18.101562 2.898438 -18.28125 3.484375 -18.28125 C 3.867188 -18.28125 4.210938 -18.195312 4.515625 -18.03125 C 4.828125 -17.875 5.066406 -17.648438 5.234375 -17.359375 C 5.398438 -17.078125 5.484375 -16.753906 5.484375 -16.390625 C 5.484375 -16.015625 5.398438 -15.679688 5.234375 -15.390625 C 5.066406 -15.109375 4.828125 -14.882812 4.515625 -14.71875 C 4.210938 -14.550781 3.867188 -14.46875 3.484375 -14.46875 Z M 1.859375 0 L 1.859375 -12.921875 L 5.109375 -12.921875 L 5.109375 0 Z M 1.859375 0 "/></g></g><g transform="translate(402.917941, 143.161902)"><g><path d="M 6.046875 0.25 C 5.160156 0.25 4.347656 0.144531 3.609375 -0.0625 C 2.878906 -0.269531 2.253906 -0.554688 1.734375 -0.921875 C 1.222656 -1.285156 0.84375 -1.703125 0.59375 -2.171875 L 2.390625 -4.109375 L 2.640625 -4.109375 C 3.066406 -3.535156 3.570312 -3.101562 4.15625 -2.8125 C 4.75 -2.519531 5.390625 -2.375 6.078125 -2.375 C 6.703125 -2.375 7.175781 -2.488281 7.5 -2.71875 C 7.820312 -2.945312 7.984375 -3.269531 7.984375 -3.6875 C 7.984375 -4.019531 7.867188 -4.296875 7.640625 -4.515625 C 7.410156 -4.742188 7.035156 -4.921875 6.515625 -5.046875 L 4.8125 -5.453125 C 3.53125 -5.753906 2.59375 -6.21875 2 -6.84375 C 1.40625 -7.476562 1.109375 -8.28125 1.109375 -9.25 C 1.109375 -10.050781 1.3125 -10.75 1.71875 -11.34375 C 2.132812 -11.9375 2.710938 -12.390625 3.453125 -12.703125 C 4.203125 -13.015625 5.078125 -13.171875 6.078125 -13.171875 C 7.234375 -13.171875 8.191406 -13.003906 8.953125 -12.671875 C 9.722656 -12.335938 10.328125 -11.890625 10.765625 -11.328125 L 9.03125 -9.453125 L 8.796875 -9.453125 C 8.429688 -9.859375 8.023438 -10.15625 7.578125 -10.34375 C 7.128906 -10.53125 6.628906 -10.625 6.078125 -10.625 C 4.796875 -10.625 4.15625 -10.222656 4.15625 -9.421875 C 4.15625 -9.085938 4.269531 -8.8125 4.5 -8.59375 C 4.738281 -8.382812 5.160156 -8.21875 5.765625 -8.09375 L 7.359375 -7.734375 C 8.671875 -7.453125 9.628906 -7 10.234375 -6.375 C 10.835938 -5.757812 11.140625 -4.925781 11.140625 -3.875 C 11.140625 -3.0625 10.9375 -2.34375 10.53125 -1.71875 C 10.125 -1.09375 9.535156 -0.609375 8.765625 -0.265625 C 8.003906 0.078125 7.097656 0.25 6.046875 0.25 Z M 6.046875 0.25 "/></g></g><g transform="translate(414.835909, 143.161902)"><g><path d="M 5.046875 0.25 C 4.210938 0.25 3.488281 0.0976562 2.875 -0.203125 C 2.269531 -0.515625 1.800781 -0.960938 1.46875 -1.546875 C 1.144531 -2.140625 0.984375 -2.851562 0.984375 -3.6875 C 0.984375 -4.445312 1.144531 -5.085938 1.46875 -5.609375 C 1.800781 -6.128906 2.3125 -6.554688 3 -6.890625 C 3.6875 -7.222656 4.585938 -7.476562 5.703125 -7.65625 C 6.472656 -7.78125 7.054688 -7.914062 7.453125 -8.0625 C 7.859375 -8.207031 8.128906 -8.375 8.265625 -8.5625 C 8.410156 -8.75 8.484375 -8.988281 8.484375 -9.28125 C 8.484375 -9.695312 8.335938 -10.015625 8.046875 -10.234375 C 7.765625 -10.453125 7.285156 -10.5625 6.609375 -10.5625 C 5.890625 -10.5625 5.207031 -10.398438 4.5625 -10.078125 C 3.914062 -9.753906 3.351562 -9.332031 2.875 -8.8125 L 2.640625 -8.8125 L 1.28125 -10.859375 C 1.9375 -11.585938 2.734375 -12.15625 3.671875 -12.5625 C 4.617188 -12.96875 5.65625 -13.171875 6.78125 -13.171875 C 8.488281 -13.171875 9.722656 -12.804688 10.484375 -12.078125 C 11.253906 -11.359375 11.640625 -10.328125 11.640625 -8.984375 L 11.640625 -3.375 C 11.640625 -2.800781 11.894531 -2.515625 12.40625 -2.515625 C 12.59375 -2.515625 12.78125 -2.546875 12.96875 -2.609375 L 13.140625 -2.5625 L 13.375 -0.3125 C 13.195312 -0.1875 12.945312 -0.0859375 12.625 -0.015625 C 12.300781 0.0546875 11.945312 0.09375 11.5625 0.09375 C 10.789062 0.09375 10.1875 -0.0507812 9.75 -0.34375 C 9.320312 -0.644531 9.015625 -1.113281 8.828125 -1.75 L 8.578125 -1.765625 C 7.941406 -0.421875 6.765625 0.25 5.046875 0.25 Z M 6.078125 -2.1875 C 6.828125 -2.1875 7.425781 -2.4375 7.875 -2.9375 C 8.320312 -3.4375 8.546875 -4.140625 8.546875 -5.046875 L 8.546875 -6.359375 L 8.328125 -6.40625 C 8.128906 -6.25 7.867188 -6.113281 7.546875 -6 C 7.234375 -5.894531 6.78125 -5.796875 6.1875 -5.703125 C 5.488281 -5.578125 4.984375 -5.375 4.671875 -5.09375 C 4.359375 -4.8125 4.203125 -4.40625 4.203125 -3.875 C 4.203125 -3.320312 4.363281 -2.898438 4.6875 -2.609375 C 5.019531 -2.328125 5.484375 -2.1875 6.078125 -2.1875 Z M 6.078125 -2.1875 "/></g></g><g transform="translate(428.464815, 143.161902)"><g><path d="M 8.921875 -3.078125 L 9.765625 -0.6875 C 9.410156 -0.394531 8.96875 -0.164062 8.4375 0 C 7.90625 0.164062 7.304688 0.25 6.640625 0.25 C 5.234375 0.25 4.164062 -0.128906 3.4375 -0.890625 C 2.71875 -1.660156 2.359375 -2.769531 2.359375 -4.21875 L 2.359375 -10.359375 L 0.390625 -10.359375 L 0.390625 -12.9375 L 2.359375 -12.9375 L 2.359375 -15.453125 L 5.609375 -15.984375 L 5.609375 -12.9375 L 9.265625 -12.9375 L 9.265625 -10.359375 L 5.609375 -10.359375 L 5.609375 -4.453125 C 5.609375 -3.816406 5.738281 -3.347656 6 -3.046875 C 6.269531 -2.753906 6.65625 -2.609375 7.15625 -2.609375 C 7.738281 -2.609375 8.242188 -2.765625 8.671875 -3.078125 Z M 8.921875 -3.078125 "/></g></g><g transform="translate(438.507783, 143.161902)"><g><path d="M 3.484375 -14.46875 C 2.898438 -14.46875 2.421875 -14.644531 2.046875 -15 C 1.679688 -15.363281 1.5 -15.828125 1.5 -16.390625 C 1.5 -16.941406 1.679688 -17.394531 2.046875 -17.75 C 2.421875 -18.101562 2.898438 -18.28125 3.484375 -18.28125 C 3.867188 -18.28125 4.210938 -18.195312 4.515625 -18.03125 C 4.828125 -17.875 5.066406 -17.648438 5.234375 -17.359375 C 5.398438 -17.078125 5.484375 -16.753906 5.484375 -16.390625 C 5.484375 -16.015625 5.398438 -15.679688 5.234375 -15.390625 C 5.066406 -15.109375 4.828125 -14.882812 4.515625 -14.71875 C 4.210938 -14.550781 3.867188 -14.46875 3.484375 -14.46875 Z M 1.859375 0 L 1.859375 -12.921875 L 5.109375 -12.921875 L 5.109375 0 Z M 1.859375 0 "/></g></g><g transform="translate(445.46872, 143.161902)"><g><path d="M 7.515625 0.25 C 6.242188 0.25 5.128906 -0.0078125 4.171875 -0.53125 C 3.222656 -1.050781 2.484375 -1.8125 1.953125 -2.8125 C 1.421875 -3.820312 1.15625 -5.035156 1.15625 -6.453125 C 1.15625 -7.878906 1.421875 -9.09375 1.953125 -10.09375 C 2.484375 -11.101562 3.222656 -11.867188 4.171875 -12.390625 C 5.128906 -12.910156 6.242188 -13.171875 7.515625 -13.171875 C 8.773438 -13.171875 9.882812 -12.910156 10.84375 -12.390625 C 11.800781 -11.867188 12.546875 -11.101562 13.078125 -10.09375 C 13.609375 -9.09375 13.875 -7.878906 13.875 -6.453125 C 13.875 -5.035156 13.609375 -3.820312 13.078125 -2.8125 C 12.546875 -1.8125 11.800781 -1.050781 10.84375 -0.53125 C 9.882812 -0.0078125 8.773438 0.25 7.515625 0.25 Z M 7.515625 -2.515625 C 9.523438 -2.515625 10.53125 -3.828125 10.53125 -6.453125 C 10.53125 -7.828125 10.269531 -8.832031 9.75 -9.46875 C 9.238281 -10.101562 8.492188 -10.421875 7.515625 -10.421875 C 5.503906 -10.421875 4.5 -9.097656 4.5 -6.453125 C 4.5 -3.828125 5.503906 -2.515625 7.515625 -2.515625 Z M 7.515625 -2.515625 "/></g></g><g transform="translate(460.492157, 143.161902)"><g><path d="M 1.859375 0 L 1.859375 -12.921875 L 4.984375 -12.921875 L 4.984375 -11.03125 L 5.234375 -10.96875 C 6.035156 -12.4375 7.335938 -13.171875 9.140625 -13.171875 C 10.628906 -13.171875 11.722656 -12.765625 12.421875 -11.953125 C 13.128906 -11.140625 13.484375 -9.957031 13.484375 -8.40625 L 13.484375 0 L 10.234375 0 L 10.234375 -8 C 10.234375 -8.863281 10.0625 -9.484375 9.71875 -9.859375 C 9.375 -10.242188 8.820312 -10.4375 8.0625 -10.4375 C 7.132812 -10.4375 6.410156 -10.132812 5.890625 -9.53125 C 5.367188 -8.925781 5.109375 -7.976562 5.109375 -6.6875 L 5.109375 0 Z M 1.859375 0 "/></g></g><g transform="translate(475.632781, 143.161902)"><g><path d="M 6.046875 0.25 C 5.160156 0.25 4.347656 0.144531 3.609375 -0.0625 C 2.878906 -0.269531 2.253906 -0.554688 1.734375 -0.921875 C 1.222656 -1.285156 0.84375 -1.703125 0.59375 -2.171875 L 2.390625 -4.109375 L 2.640625 -4.109375 C 3.066406 -3.535156 3.570312 -3.101562 4.15625 -2.8125 C 4.75 -2.519531 5.390625 -2.375 6.078125 -2.375 C 6.703125 -2.375 7.175781 -2.488281 7.5 -2.71875 C 7.820312 -2.945312 7.984375 -3.269531 7.984375 -3.6875 C 7.984375 -4.019531 7.867188 -4.296875 7.640625 -4.515625 C 7.410156 -4.742188 7.035156 -4.921875 6.515625 -5.046875 L 4.8125 -5.453125 C 3.53125 -5.753906 2.59375 -6.21875 2 -6.84375 C 1.40625 -7.476562 1.109375 -8.28125 1.109375 -9.25 C 1.109375 -10.050781 1.3125 -10.75 1.71875 -11.34375 C 2.132812 -11.9375 2.710938 -12.390625 3.453125 -12.703125 C 4.203125 -13.015625 5.078125 -13.171875 6.078125 -13.171875 C 7.234375 -13.171875 8.191406 -13.003906 8.953125 -12.671875 C 9.722656 -12.335938 10.328125 -11.890625 10.765625 -11.328125 L 9.03125 -9.453125 L 8.796875 -9.453125 C 8.429688 -9.859375 8.023438 -10.15625 7.578125 -10.34375 C 7.128906 -10.53125 6.628906 -10.625 6.078125 -10.625 C 4.796875 -10.625 4.15625 -10.222656 4.15625 -9.421875 C 4.15625 -9.085938 4.269531 -8.8125 4.5 -8.59375 C 4.738281 -8.382812 5.160156 -8.21875 5.765625 -8.09375 L 7.359375 -7.734375 C 8.671875 -7.453125 9.628906 -7 10.234375 -6.375 C 10.835938 -5.757812 11.140625 -4.925781 11.140625 -3.875 C 11.140625 -3.0625 10.9375 -2.34375 10.53125 -1.71875 C 10.125 -1.09375 9.535156 -0.609375 8.765625 -0.265625 C 8.003906 0.078125 7.097656 0.25 6.046875 0.25 Z M 6.046875 0.25 "/></g></g></g><g fill="#ffffff" fill-opacity="1"><g transform="translate(343.925757, 176.1619)"><g><path d="M 5.046875 0.25 C 4.210938 0.25 3.488281 0.0976562 2.875 -0.203125 C 2.269531 -0.515625 1.800781 -0.960938 1.46875 -1.546875 C 1.144531 -2.140625 0.984375 -2.851562 0.984375 -3.6875 C 0.984375 -4.445312 1.144531 -5.085938 1.46875 -5.609375 C 1.800781 -6.128906 2.3125 -6.554688 3 -6.890625 C 3.6875 -7.222656 4.585938 -7.476562 5.703125 -7.65625 C 6.472656 -7.78125 7.054688 -7.914062 7.453125 -8.0625 C 7.859375 -8.207031 8.128906 -8.375 8.265625 -8.5625 C 8.410156 -8.75 8.484375 -8.988281 8.484375 -9.28125 C 8.484375 -9.695312 8.335938 -10.015625 8.046875 -10.234375 C 7.765625 -10.453125 7.285156 -10.5625 6.609375 -10.5625 C 5.890625 -10.5625 5.207031 -10.398438 4.5625 -10.078125 C 3.914062 -9.753906 3.351562 -9.332031 2.875 -8.8125 L 2.640625 -8.8125 L 1.28125 -10.859375 C 1.9375 -11.585938 2.734375 -12.15625 3.671875 -12.5625 C 4.617188 -12.96875 5.65625 -13.171875 6.78125 -13.171875 C 8.488281 -13.171875 9.722656 -12.804688 10.484375 -12.078125 C 11.253906 -11.359375 11.640625 -10.328125 11.640625 -8.984375 L 11.640625 -3.375 C 11.640625 -2.800781 11.894531 -2.515625 12.40625 -2.515625 C 12.59375 -2.515625 12.78125 -2.546875 12.96875 -2.609375 L 13.140625 -2.5625 L 13.375 -0.3125 C 13.195312 -0.1875 12.945312 -0.0859375 12.625 -0.015625 C 12.300781 0.0546875 11.945312 0.09375 11.5625 0.09375 C 10.789062 0.09375 10.1875 -0.0507812 9.75 -0.34375 C 9.320312 -0.644531 9.015625 -1.113281 8.828125 -1.75 L 8.578125 -1.765625 C 7.941406 -0.421875 6.765625 0.25 5.046875 0.25 Z M 6.078125 -2.1875 C 6.828125 -2.1875 7.425781 -2.4375 7.875 -2.9375 C 8.320312 -3.4375 8.546875 -4.140625 8.546875 -5.046875 L 8.546875 -6.359375 L 8.328125 -6.40625 C 8.128906 -6.25 7.867188 -6.113281 7.546875 -6 C 7.234375 -5.894531 6.78125 -5.796875 6.1875 -5.703125 C 5.488281 -5.578125 4.984375 -5.375 4.671875 -5.09375 C 4.359375 -4.8125 4.203125 -4.40625 4.203125 -3.875 C 4.203125 -3.320312 4.363281 -2.898438 4.6875 -2.609375 C 5.019531 -2.328125 5.484375 -2.1875 6.078125 -2.1875 Z M 6.078125 -2.1875 "/></g></g><g transform="translate(357.554662, 176.1619)"><g><path d="M 1.859375 0 L 1.859375 -12.921875 L 4.984375 -12.921875 L 4.984375 -11.03125 L 5.234375 -10.96875 C 6.035156 -12.4375 7.335938 -13.171875 9.140625 -13.171875 C 10.628906 -13.171875 11.722656 -12.765625 12.421875 -11.953125 C 13.128906 -11.140625 13.484375 -9.957031 13.484375 -8.40625 L 13.484375 0 L 10.234375 0 L 10.234375 -8 C 10.234375 -8.863281 10.0625 -9.484375 9.71875 -9.859375 C 9.375 -10.242188 8.820312 -10.4375 8.0625 -10.4375 C 7.132812 -10.4375 6.410156 -10.132812 5.890625 -9.53125 C 5.367188 -8.925781 5.109375 -7.976562 5.109375 -6.6875 L 5.109375 0 Z M 1.859375 0 "/></g></g><g transform="translate(372.695286, 176.1619)"><g><path d="M 6.390625 0.25 C 5.367188 0.25 4.460938 0 3.671875 -0.5 C 2.890625 -1 2.273438 -1.75 1.828125 -2.75 C 1.378906 -3.75 1.15625 -4.984375 1.15625 -6.453125 C 1.15625 -7.929688 1.382812 -9.171875 1.84375 -10.171875 C 2.300781 -11.179688 2.929688 -11.929688 3.734375 -12.421875 C 4.546875 -12.921875 5.484375 -13.171875 6.546875 -13.171875 C 7.359375 -13.171875 8.054688 -13.03125 8.640625 -12.75 C 9.234375 -12.476562 9.734375 -12.050781 10.140625 -11.46875 L 10.390625 -11.515625 L 10.390625 -18.125 L 13.625 -18.125 L 13.625 0 L 10.390625 0 L 10.390625 -1.671875 L 10.140625 -1.71875 C 9.773438 -1.113281 9.28125 -0.632812 8.65625 -0.28125 C 8.03125 0.0703125 7.273438 0.25 6.390625 0.25 Z M 7.4375 -2.515625 C 8.351562 -2.515625 9.078125 -2.835938 9.609375 -3.484375 C 10.140625 -4.140625 10.40625 -5.128906 10.40625 -6.453125 C 10.40625 -7.785156 10.140625 -8.78125 9.609375 -9.4375 C 9.078125 -10.09375 8.351562 -10.421875 7.4375 -10.421875 C 6.488281 -10.421875 5.757812 -10.101562 5.25 -9.46875 C 4.75 -8.832031 4.5 -7.828125 4.5 -6.453125 C 4.5 -5.097656 4.75 -4.101562 5.25 -3.46875 C 5.757812 -2.832031 6.488281 -2.515625 7.4375 -2.515625 Z M 7.4375 -2.515625 "/></g></g><g transform="translate(388.187473, 176.1619)"><g/></g><g transform="translate(393.847629, 176.1619)"><g><path d="M 12.78125 -5.734375 L 4.46875 -5.734375 C 4.5625 -4.609375 4.878906 -3.789062 5.421875 -3.28125 C 5.972656 -2.769531 6.722656 -2.515625 7.671875 -2.515625 C 8.410156 -2.515625 9.007812 -2.648438 9.46875 -2.921875 C 9.925781 -3.203125 10.296875 -3.625 10.578125 -4.1875 L 10.828125 -4.1875 L 12.984375 -2.796875 C 12.566406 -1.890625 11.929688 -1.15625 11.078125 -0.59375 C 10.222656 -0.03125 9.085938 0.25 7.671875 0.25 C 6.328125 0.25 5.171875 -0.00390625 4.203125 -0.515625 C 3.234375 -1.023438 2.484375 -1.78125 1.953125 -2.78125 C 1.421875 -3.789062 1.15625 -5.015625 1.15625 -6.453125 C 1.15625 -7.921875 1.429688 -9.160156 1.984375 -10.171875 C 2.546875 -11.179688 3.296875 -11.929688 4.234375 -12.421875 C 5.179688 -12.921875 6.25 -13.171875 7.4375 -13.171875 C 9.257812 -13.171875 10.65625 -12.6875 11.625 -11.71875 C 12.601562 -10.75 13.09375 -9.328125 13.09375 -7.453125 C 13.09375 -6.773438 13.066406 -6.25 13.015625 -5.875 Z M 9.984375 -7.828125 C 9.953125 -8.816406 9.722656 -9.535156 9.296875 -9.984375 C 8.867188 -10.429688 8.25 -10.65625 7.4375 -10.65625 C 5.789062 -10.65625 4.820312 -9.710938 4.53125 -7.828125 Z M 9.984375 -7.828125 "/></g></g><g transform="translate(407.898409, 176.1619)"><g><path d="M 3.640625 0 L 0.21875 0 L 3.921875 -6.703125 L 0.421875 -12.921875 L 3.890625 -12.921875 L 6.125 -8.671875 L 6.40625 -8.671875 L 8.65625 -12.921875 L 12.015625 -12.921875 L 8.625 -6.703125 L 12.21875 0 L 8.75 0 L 6.3125 -4.71875 L 6.046875 -4.71875 Z M 3.640625 0 "/></g></g><g transform="translate(420.332003, 176.1619)"><g><path d="M 8.921875 -3.078125 L 9.765625 -0.6875 C 9.410156 -0.394531 8.96875 -0.164062 8.4375 0 C 7.90625 0.164062 7.304688 0.25 6.640625 0.25 C 5.234375 0.25 4.164062 -0.128906 3.4375 -0.890625 C 2.71875 -1.660156 2.359375 -2.769531 2.359375 -4.21875 L 2.359375 -10.359375 L 0.390625 -10.359375 L 0.390625 -12.9375 L 2.359375 -12.9375 L 2.359375 -15.453125 L 5.609375 -15.984375 L 5.609375 -12.9375 L 9.265625 -12.9375 L 9.265625 -10.359375 L 5.609375 -10.359375 L 5.609375 -4.453125 C 5.609375 -3.816406 5.738281 -3.347656 6 -3.046875 C 6.269531 -2.753906 6.65625 -2.609375 7.15625 -2.609375 C 7.738281 -2.609375 8.242188 -2.765625 8.671875 -3.078125 Z M 8.921875 -3.078125 "/></g></g><g transform="translate(430.374971, 176.1619)"><g><path d="M 1.859375 0 L 1.859375 -12.921875 L 5.015625 -12.921875 L 5.015625 -11 L 5.265625 -10.953125 C 5.578125 -11.671875 5.984375 -12.195312 6.484375 -12.53125 C 6.992188 -12.875 7.613281 -13.046875 8.34375 -13.046875 C 9.082031 -13.046875 9.640625 -12.921875 10.015625 -12.671875 L 9.46875 -9.875 L 9.21875 -9.828125 C 9.007812 -9.910156 8.804688 -9.96875 8.609375 -10 C 8.421875 -10.039062 8.1875 -10.0625 7.90625 -10.0625 C 7 -10.0625 6.304688 -9.742188 5.828125 -9.109375 C 5.347656 -8.472656 5.109375 -7.453125 5.109375 -6.046875 L 5.109375 0 Z M 1.859375 0 "/></g></g><g transform="translate(440.511689, 176.1619)"><g><path d="M 5.046875 0.25 C 4.210938 0.25 3.488281 0.0976562 2.875 -0.203125 C 2.269531 -0.515625 1.800781 -0.960938 1.46875 -1.546875 C 1.144531 -2.140625 0.984375 -2.851562 0.984375 -3.6875 C 0.984375 -4.445312 1.144531 -5.085938 1.46875 -5.609375 C 1.800781 -6.128906 2.3125 -6.554688 3 -6.890625 C 3.6875 -7.222656 4.585938 -7.476562 5.703125 -7.65625 C 6.472656 -7.78125 7.054688 -7.914062 7.453125 -8.0625 C 7.859375 -8.207031 8.128906 -8.375 8.265625 -8.5625 C 8.410156 -8.75 8.484375 -8.988281 8.484375 -9.28125 C 8.484375 -9.695312 8.335938 -10.015625 8.046875 -10.234375 C 7.765625 -10.453125 7.285156 -10.5625 6.609375 -10.5625 C 5.890625 -10.5625 5.207031 -10.398438 4.5625 -10.078125 C 3.914062 -9.753906 3.351562 -9.332031 2.875 -8.8125 L 2.640625 -8.8125 L 1.28125 -10.859375 C 1.9375 -11.585938 2.734375 -12.15625 3.671875 -12.5625 C 4.617188 -12.96875 5.65625 -13.171875 6.78125 -13.171875 C 8.488281 -13.171875 9.722656 -12.804688 10.484375 -12.078125 C 11.253906 -11.359375 11.640625 -10.328125 11.640625 -8.984375 L 11.640625 -3.375 C 11.640625 -2.800781 11.894531 -2.515625 12.40625 -2.515625 C 12.59375 -2.515625 12.78125 -2.546875 12.96875 -2.609375 L 13.140625 -2.5625 L 13.375 -0.3125 C 13.195312 -0.1875 12.945312 -0.0859375 12.625 -0.015625 C 12.300781 0.0546875 11.945312 0.09375 11.5625 0.09375 C 10.789062 0.09375 10.1875 -0.0507812 9.75 -0.34375 C 9.320312 -0.644531 9.015625 -1.113281 8.828125 -1.75 L 8.578125 -1.765625 C 7.941406 -0.421875 6.765625 0.25 5.046875 0.25 Z M 6.078125 -2.1875 C 6.828125 -2.1875 7.425781 -2.4375 7.875 -2.9375 C 8.320312 -3.4375 8.546875 -4.140625 8.546875 -5.046875 L 8.546875 -6.359375 L 8.328125 -6.40625 C 8.128906 -6.25 7.867188 -6.113281 7.546875 -6 C 7.234375 -5.894531 6.78125 -5.796875 6.1875 -5.703125 C 5.488281 -5.578125 4.984375 -5.375 4.671875 -5.09375 C 4.359375 -4.8125 4.203125 -4.40625 4.203125 -3.875 C 4.203125 -3.320312 4.363281 -2.898438 4.6875 -2.609375 C 5.019531 -2.328125 5.484375 -2.1875 6.078125 -2.1875 Z M 6.078125 -2.1875 "/></g></g><g transform="translate(454.140595, 176.1619)"><g><path d="M 6.046875 0.25 C 5.160156 0.25 4.347656 0.144531 3.609375 -0.0625 C 2.878906 -0.269531 2.253906 -0.554688 1.734375 -0.921875 C 1.222656 -1.285156 0.84375 -1.703125 0.59375 -2.171875 L 2.390625 -4.109375 L 2.640625 -4.109375 C 3.066406 -3.535156 3.570312 -3.101562 4.15625 -2.8125 C 4.75 -2.519531 5.390625 -2.375 6.078125 -2.375 C 6.703125 -2.375 7.175781 -2.488281 7.5 -2.71875 C 7.820312 -2.945312 7.984375 -3.269531 7.984375 -3.6875 C 7.984375 -4.019531 7.867188 -4.296875 7.640625 -4.515625 C 7.410156 -4.742188 7.035156 -4.921875 6.515625 -5.046875 L 4.8125 -5.453125 C 3.53125 -5.753906 2.59375 -6.21875 2 -6.84375 C 1.40625 -7.476562 1.109375 -8.28125 1.109375 -9.25 C 1.109375 -10.050781 1.3125 -10.75 1.71875 -11.34375 C 2.132812 -11.9375 2.710938 -12.390625 3.453125 -12.703125 C 4.203125 -13.015625 5.078125 -13.171875 6.078125 -13.171875 C 7.234375 -13.171875 8.191406 -13.003906 8.953125 -12.671875 C 9.722656 -12.335938 10.328125 -11.890625 10.765625 -11.328125 L 9.03125 -9.453125 L 8.796875 -9.453125 C 8.429688 -9.859375 8.023438 -10.15625 7.578125 -10.34375 C 7.128906 -10.53125 6.628906 -10.625 6.078125 -10.625 C 4.796875 -10.625 4.15625 -10.222656 4.15625 -9.421875 C 4.15625 -9.085938 4.269531 -8.8125 4.5 -8.59375 C 4.738281 -8.382812 5.160156 -8.21875 5.765625 -8.09375 L 7.359375 -7.734375 C 8.671875 -7.453125 9.628906 -7 10.234375 -6.375 C 10.835938 -5.757812 11.140625 -4.925781 11.140625 -3.875 C 11.140625 -3.0625 10.9375 -2.34375 10.53125 -1.71875 C 10.125 -1.09375 9.535156 -0.609375 8.765625 -0.265625 C 8.003906 0.078125 7.097656 0.25 6.046875 0.25 Z M 6.046875 0.25 "/></g></g></g></svg>